<svg width="15" height="15" xmlns="http://www.w3.org/2000/svg" xmlns:xlink="http://www.w3.org/1999/xlink"><defs><linearGradient x1="50%" y1="0%" x2="50%" y2="100%" id="b"><stop stop-color="#07319C" offset="0%"/><stop stop-color="#00247E" offset="100%"/></linearGradient><path id="a" d="M0 0h15v15H0z"/><linearGradient x1="50%" y1="0%" x2="50%" y2="100%" id="d"><stop stop-color="#A7D2FF" offset="0%"/><stop stop-color="#91C6FD" offset="100%"/></linearGradient><path d="M0 2.917V.425C0 .19.172 0 .398 0h3.204C3.822 0 4 .19 4 .425v2.492C4 4.583 2 5 2 5s-2-.417-2-2.083z" id="e"/><linearGradient x1="50%" y1="0%" x2="50%" y2="100%" id="f"><stop stop-color="#EE7B2D" offset="0%"/><stop stop-color="#CC621A" offset="100%"/></linearGradient><path d="M0 2.917V.425C0 .19.172 0 .398 0h3.204C3.822 0 4 .19 4 .425v2.492C4 4.583 2 5 2 5s-2-.417-2-2.083z" id="h"/><path d="M0 2.917V.425C0 .19.172 0 .398 0h3.204C3.822 0 4 .19 4 .425v2.492C4 4.583 2 5 2 5s-2-.417-2-2.083z" id="j"/><path d="M0 2.917V.425C0 .19.172 0 .398 0h3.204C3.822 0 4 .19 4 .425v2.492C4 4.583 2 5 2 5s-2-.417-2-2.083z" id="l"/><linearGradient x1="50%" y1="0%" x2="50%" y2="100%" id="m"><stop stop-color="#FFFC4B" offset="0%"/><stop stop-color="#FFFC38" offset="100%"/></linearGradient><linearGradient x1="50%" y1="0%" x2="50%" y2="100%" id="o"><stop stop-color="#FFF" offset="0%"/><stop stop-color="#F0F0F0" offset="100%"/></linearGradient><linearGradient x1="50%" y1="0%" x2="50%" y2="100%" id="p"><stop stop-color="#DB1E36" offset="0%"/><stop stop-color="#D51931" offset="100%"/></linearGradient></defs><g fill="none" fill-rule="evenodd"><mask id="c" fill="#fff"><use xlink:href="#a"/></mask><use fill="url(#b)" xlink:href="#a"/><g mask="url(#c)"><path d="M5 4.23L.648.5H2.66L6.16 3h.697L11.5.098V1.25c0 .303-.167.627-.418.806L8 4.257v.513l3.137 2.69c.462.395.204 1.04-.387 1.04-.245 0-.545-.096-.75-.242L6.84 6h-.697L1.5 8.902v-1.66l3.5-2.5V4.23z" fill="url(#o)" transform="translate(-2 -1)"/><path d="M5.5 4L2 1h.5L6 3.5h1L11 1v.25a.537.537 0 0 1-.208.399L7.5 4v1l3.312 2.839c.104.089.072.161-.062.161a.898.898 0 0 1-.458-.149L7 5.5H6L2 8v-.5L5.5 5V4z" fill="url(#p)" transform="translate(-2 -1)"/><path d="M2 3.5v2h3.5v2.505c0 .273.214.495.505.495h.99a.496.496 0 0 0 .505-.495V5.5h3.51a.49.49 0 0 0 .49-.505v-.99a.495.495 0 0 0-.49-.505H7.5V1h-2v2.5H2z" fill="url(#o)" transform="translate(-2 -1)"/><path fill="url(#p)" d="M2 4h4V1h1v3h4v1H7v3H6V5H2z" transform="translate(-2 -1)"/></g></g><g><path fill="#FFFFFF" d="M13,10.8c0,1.4-0.2,2.9-2,3.6c-1.8-0.7-2-2.2-2-3.6L13,10.8L13,10.8z"/><path fill="#29DBFF" d="M13,11.4c-0.1,1.2-0.4,2.4-2,3c-1.6-0.6-1.9-1.8-2-3"/><path fill="#FFFFFF" d="M12.9,12c-0.1,0.9-0.6,1.9-2,2.4c-1.4-0.5-1.8-1.5-2-2.4"/><path fill="#29DBFF" d="M12.8,12.6c-0.2,0.6-0.7,1.4-1.8,1.9c-1.1-0.4-1.6-1.2-1.8-1.9"/><path fill="#FFFFFF" d="M12.5,13.1c-0.2,0.4-0.6,0.9-1.6,1.3c-1-0.4-1.3-0.9-1.6-1.3"/><path fill="#29DBFF" d="M12,13.8c-0.3,0.3-0.4,0.4-1.1,0.6c-0.7-0.3-0.8-0.4-1-0.6"/><path fill="#33aa33" d="M11,12.6c0,0-1,1.3-1,1.3c-0.1,0-0.4-0.3-0.5-0.5l1.5-1.8l1.4,1.8c-0.1,0.2-0.4,0.5-0.5,0.5"/></g><polygon fill="#33aa33" points="11,7.4 10,9 11,10.4 11.9,8.9 "/><ellipse transform="matrix(0.9881 -0.1541 0.1541 0.9881 -1.7146 2.276)" fill="#dc9f47" cx="13.8" cy="12.2" rx="0.5" ry="1.6"/><ellipse transform="matrix(0.1353 -0.9908 0.9908 0.1353 -5.0257 18.6361)" fill="#dc9f47" cx="8.2" cy="12.2" rx="1.6" ry="0.5"/></svg>