<svg width="15" height="15" xmlns="http://www.w3.org/2000/svg"><defs><linearGradient x1="50%" y1="0%" x2="50%" y2="100%" id="a"><stop stop-color="#EE343C" offset="0%"/><stop stop-color="#E2222A" offset="100%"/></linearGradient><linearGradient x1="50%" y1="0%" x2="50%" y2="100%" id="b"><stop stop-color="#262626" offset="0%"/><stop stop-color="#0D0D0D" offset="100%"/></linearGradient></defs><g fill="none" fill-rule="evenodd"><path fill="url(#a)" d="M0 0h15v15H0z"/><path d="M6.86 4.132l.636.626a.396.396 0 0 0 .55 0l.636-.626a.504.504 0 0 1 .599-.059l.861.567-1.223.602a.694.694 0 0 0-.357.566c0 .209.177.39.395.39.212 0 .552-.079.746-.174l.879-.433a.587.587 0 0 1 .628.1l.237.234c.153.15.119.35-.075.445l-.879.433c-.193.095-.205.268-.026.386l.537.353c.179.117.153.247-.057.289l-1.214.239c-.213.041-.237.18-.06.311l.94.695c.174.13.143.237-.075.237a3.952 3.952 0 0 1-.778-.094l-.816-.201c-.213-.053-.286.049-.166.225l.358.53c.119.175.037.319-.185.319h-.383a.584.584 0 0 0-.526.37l-.146.428c-.07.207-.18.205-.25 0l-.145-.428a.585.585 0 0 0-.527-.37h-.382c-.227 0-.305-.144-.186-.32l.359-.53c.119-.175.044-.277-.167-.224l-.815.2a3.85 3.85 0 0 1-.778.095c-.212 0-.252-.106-.075-.237l.94-.695c.174-.13.15-.27-.06-.311l-1.215-.24c-.212-.041-.235-.17-.057-.288l.538-.353c.179-.117.167-.29-.027-.386L4.17 6.37c-.194-.095-.227-.295-.074-.445l.237-.234a.586.586 0 0 1 .628-.1l.878.433c.194.095.528.173.747.173a.397.397 0 0 0 .395-.39.694.694 0 0 0-.351-.562l-.88-.433c-.193-.095-.205-.267-.026-.385l.538-.354a.5.5 0 0 1 .599.059z" fill="url(#b)"/></g></svg>