<svg width="15" height="15" xmlns="http://www.w3.org/2000/svg"><defs><linearGradient x1="50%" y1="0%" x2="50%" y2="100%" id="a"><stop stop-color="#229716" offset="0%"/><stop stop-color="#1C7E12" offset="100%"/></linearGradient><linearGradient x1="50%" y1="0%" x2="50%" y2="100%" id="b"><stop stop-color="#FFE244" offset="0%"/><stop stop-color="#FFDF32" offset="100%"/></linearGradient></defs><g fill="none" fill-rule="evenodd"><path fill="url(#a)" d="M0 0h15v15H0z"/><path d="M3.355 6.855C2.607 6.855 2 6.216 2 5.428 2 4.639 2.607 4 3.355 4c.749 0 1.356.64 1.356 1.428 0 .788-.607 1.427-1.356 1.427zm0-1.427c.141 0-.108.752 0 .714.18-.065.678-.948.678-1.071 0-.197-.304-.357-.678-.357-.374 0-.677.16-.677.357 0 .197.303.357.677.357zm8.133 6.424l-.48.148.14-.505-.14-.504.48.147.479-.147-.14.504.14.505-.48-.148zm0-6.781l-.48.148.14-.505-.14-.505.48.148.479-.148-.14.505.14.505-.48-.148zm2.033 2.141l-.48.148.141-.505-.14-.504.479.147.479-.147-.14.504.14.505-.48-.148zm-3.389.714l-.479.148.14-.505-.14-.504.48.147.479-.147-.14.504.14.505-.48-.148zm2.372.892l-.24.075.07-.253-.07-.253.24.074.24-.074-.07.253.07.253-.24-.075zM8.818 6.532a1.633 1.633 0 0 0-2.3.18 1.855 1.855 0 0 0 0 2.428 1.633 1.633 0 0 0 2.3.18 1.37 1.37 0 0 1-1.622-.504 1.55 1.55 0 0 1 0-1.78 1.37 1.37 0 0 1 1.622-.504z" fill="url(#b)" fill-rule="nonzero"/></g></svg>