<svg width="15" height="15" xmlns="http://www.w3.org/2000/svg"><defs><linearGradient x1="50%" y1="0%" x2="50%" y2="100%" id="a"><stop stop-color="#0C49AE" offset="0%"/><stop stop-color="#063B91" offset="100%"/></linearGradient><linearGradient x1="50%" y1="0%" x2="50%" y2="100%" id="b"><stop stop-color="#FFF" offset="0%"/><stop stop-color="#F0F0F0" offset="100%"/></linearGradient><linearGradient x1="50%" y1="0%" x2="50%" y2="100%" id="c"><stop stop-color="#CD232E" offset="0%"/><stop stop-color="#CD232E" offset="100%"/></linearGradient></defs><g fill="none" fill-rule="evenodd"><path d="M0 0h15v8H0V0zm0 11h15v4H0v-4z" fill="url(#a)" fill-rule="nonzero"/><path fill="url(#b)" d="M0 8h15v3H0z"/><path fill="url(#c)" d="M0 9h15v1H0z"/><path d="M5.48 12.929a.5.5 0 1 1 0-1c.284 0 .56-.047.822-.138a.5.5 0 0 1 .33.944 3.5 3.5 0 0 1-1.152.194zm2.651-1.215a3.5 3.5 0 0 0 .605-.998.5.5 0 1 0-.93-.368 2.5 2.5 0 0 1-.432.713.5.5 0 0 0 .757.653zm.817-2.76A3.48 3.48 0 0 0 8.6 7.842a.5.5 0 0 0-.89.454c.125.248.21.516.247.794a.5.5 0 1 0 .991-.134zm-1.61-2.492a3.482 3.482 0 0 0-1.08-.446.5.5 0 1 0-.22.975c.272.062.531.17.768.318a.5.5 0 1 0 .53-.847h.001zm-2.8-.405a3.487 3.487 0 0 0-1.056.498.5.5 0 1 0 .571.82c.23-.16.484-.28.753-.354a.5.5 0 0 0-.268-.964zM2.33 7.902a3.48 3.48 0 0 0-.327 1.12.5.5 0 1 0 .994.116 2.48 2.48 0 0 1 .232-.8.5.5 0 1 0-.9-.436h.001zm-.06 2.925c.157.359.373.689.638.976a.5.5 0 1 0 .735-.678 2.503 2.503 0 0 1-.456-.698.5.5 0 0 0-.917.4zm2.146 1.937a.5.5 0 1 1 .304-.953c.23.073.47.113.714.118a.5.5 0 0 1-.018 1 3.495 3.495 0 0 1-1-.165z" fill="#F7D035" fill-rule="nonzero"/></g></svg>