<svg width="15" height="15" xmlns="http://www.w3.org/2000/svg"><defs><linearGradient x1="50%" y1="0%" x2="50%" y2="100%" id="a"><stop stop-color="#043CAE" offset="0%"/><stop stop-color="#00339A" offset="100%"/></linearGradient><linearGradient x1="50%" y1="0%" x2="50%" y2="100%" id="b"><stop stop-color="#FFD429" offset="0%"/><stop stop-color="#FC0" offset="100%"/></linearGradient></defs><g fill="none" fill-rule="evenodd"><path fill="url(#a)" d="M0 0h15v15H0z"/><path d="M7.5 3.163l-.681.2.2-.682-.2-.681.681.2.681-.2-.2.681.2.682-.681-.2zm0 9.638L6.819 13l.2-.681-.2-.682.681.2.681-.2-.2.682.2.681-.681-.2zm4.819-4.82l-.682.2.2-.681-.2-.681.682.2.681-.2-.2.681.2.681-.681-.2zm-9.638 0l-.681.2.2-.681-.2-.681.681.2.682-.2-.2.681.2.681-.682-.2zm8.992-2.408l-.681.199.2-.681-.2-.682.68.2.682-.2-.2.682.2.681-.681-.2zM3.327 10.39l-.681.2.2-.682-.2-.681.681.2.681-.2-.2.681.2.682-.68-.2zM9.91 3.81l-.681.2.2-.682-.2-.681.681.2.682-.2-.2.681.2.681-.682-.2zm-4.818 8.346l-.682.2.2-.682-.2-.681.682.2.681-.2-.2.68.2.682-.681-.2zm6.582-1.764l-.681.2.2-.682-.2-.681.68.2.682-.2-.2.681.2.682-.681-.2zM3.327 5.573l-.681.199.2-.681-.2-.682.681.2.681-.2-.2.682.2.681-.68-.2zm6.582 6.582l-.681.2.2-.682-.2-.681.681.2.682-.2-.2.68.2.682-.682-.2zM5.091 3.809l-.682.2.2-.682-.2-.681.682.2.681-.2-.2.681.2.681-.681-.2z" fill="url(#b)" fill-rule="nonzero"/></g></svg>