<svg width="15" height="15" xmlns="http://www.w3.org/2000/svg" xmlns:xlink="http://www.w3.org/1999/xlink"><defs><linearGradient x1="50%" y1="0%" x2="50%" y2="100%" id="b"><stop stop-color="#FFF" offset="0%"/><stop stop-color="#F0F0F0" offset="100%"/></linearGradient><path id="a" d="M0 0h15v15H0z"/><linearGradient x1="50%" y1="0%" x2="50%" y2="100%" id="c"><stop stop-color="#79CFF6" offset="0%"/><stop stop-color="#68BFE6" offset="100%"/></linearGradient><linearGradient x1="50%" y1="0%" x2="50%" y2="100%" id="e"><stop stop-color="#042C90" offset="0%"/><stop stop-color="#00247E" offset="100%"/></linearGradient><path d="M0 2.5V0h4v2.5C4 4.286 2 5 2 5s-2-.714-2-2.5z" id="f"/><path d="M0 2.5V0h4v2.5C4 4.286 2 5 2 5s-2-.714-2-2.5z" id="h"/><linearGradient x1="50%" y1="0%" x2="50%" y2="100%" id="i"><stop stop-color="#EB1D43" offset="0%"/><stop stop-color="#D21034" offset="100%"/></linearGradient><linearGradient x1="50%" y1="0%" x2="50%" y2="100%" id="k"><stop stop-color="#DB1E36" offset="0%"/><stop stop-color="#D51931" offset="100%"/></linearGradient></defs><g fill="none" fill-rule="evenodd"><mask id="d" fill="#fff"><use xlink:href="#a"/></mask><use fill="url(#b)" xlink:href="#a"/><path fill="url(#c)" mask="url(#d)" d="M0 0h21v15H0z"/><path fill="url(#e)" mask="url(#d)" d="M0 0h9v7H0z"/><g mask="url(#d)"><path d="M0 2.5V0h4v2.5C4 4.286 2 5 2 5s-2-.714-2-2.5z" fill="url(#b)" transform="translate(9 9)"/><g transform="translate(9 9)"><mask id="g" fill="#fff"><use xlink:href="#f"/></mask><path d="M.8 2.321c-.22 0-.4-.28-.4-.625s.18-.625.4-.625c.22 0 .4.28.4.625 0 .346-.18.625-.4.625zm2.4 0c-.22 0-.4-.28-.4-.625s.18-.625.4-.625c.22 0 .4.28.4.625 0 .346-.18.625-.4.625z" fill="#2A915C" fill-rule="nonzero" mask="url(#g)"/></g><g transform="translate(9 9)"><mask id="j" fill="#fff"><use xlink:href="#h"/></mask><path fill="url(#i)" mask="url(#j)" d="M0 0h4v.714H2.4v1.429H4v.714H2.4V5h-.8V2.857H0v-.714h1.6V.714H0z"/></g></g><g mask="url(#d)" fill="url(#k)"><path d="M3.5 3L0 0h.5L4 2.5h1L9 0v.25a.537.537 0 0 1-.208.399L5.5 3v1l3.312 2.839c.104.089.072.161-.062.161a.898.898 0 0 1-.458-.149L5 4.5H4L0 7v-.5L3.5 4V3z"/></g><g mask="url(#d)"><path d="M3.25 3.115L-.676-.25H.5l.145.047L4.08 2.25h.848L9.25-.451V.25c0 .222-.128.47-.313.602L5.75 3.13v.756L8.975 6.65c.282.242.138.601-.225.601-.193 0-.442-.08-.604-.195L4.92 4.75h-.848L-.25 7.451v-1.08l3.5-2.5v-.756z" stroke="#FFF" stroke-width=".5"/><path d="M1 3.5v2h3.5v2.505c0 .273.214.495.505.495h.99a.496.496 0 0 0 .505-.495V5.5h3.51a.49.49 0 0 0 .49-.505v-.99a.495.495 0 0 0-.49-.505H6.5V1h-2v2.5H1z" fill="url(#b)" transform="translate(-1 -1)"/><path fill="url(#k)" d="M1 4h4V1h1v3h4v1H6v3H5V5H1z" transform="translate(-1 -1)"/></g></g></svg>