<svg width="15" height="15" xmlns="http://www.w3.org/2000/svg" xmlns:xlink="http://www.w3.org/1999/xlink"><defs><linearGradient x1="50%" y1="0%" x2="50%" y2="100%" id="b"><stop stop-color="#FFF" offset="0%"/><stop stop-color="#F0F0F0" offset="100%"/></linearGradient><path id="a" d="M0 0h15v15H0z"/><linearGradient x1="50%" y1="0%" x2="50%" y2="100%" id="c"><stop stop-color="#E82739" offset="0%"/><stop stop-color="#CA1A2B" offset="100%"/></linearGradient><linearGradient x1="50%" y1="0%" x2="50%" y2="100%" id="e"><stop stop-color="#E6101E" offset="0%"/><stop stop-color="#CA0814" offset="100%"/></linearGradient><linearGradient x1="50%" y1="0%" x2="50%" y2="100%" id="f"><stop stop-color="#FFD148" offset="0%"/><stop stop-color="#FFCB2F" offset="100%"/></linearGradient><path d="M0 1.75L1 2l.5-.5.5.5 1-.25-.404 1.009A.4.4 0 0 1 2.255 3H.745a.39.39 0 0 1-.341-.241L0 1.75zM1.5 1a.5.5 0 1 1 0-1 .5.5 0 0 1 0 1z" id="g"/><path d="M0 1.75L1 2l.5-.5.5.5 1-.25-.404 1.009A.4.4 0 0 1 2.255 3H.745a.39.39 0 0 1-.341-.241L0 1.75zM1.5 1a.5.5 0 1 1 0-1 .5.5 0 0 1 0 1z" id="i"/><path d="M0 1.75L1 2l.5-.5.5.5 1-.25-.404 1.009A.4.4 0 0 1 2.255 3H.745a.39.39 0 0 1-.341-.241L0 1.75zM1.5 1a.5.5 0 1 1 0-1 .5.5 0 0 1 0 1z" id="k"/></defs><g fill="none" fill-rule="evenodd"><mask id="d" fill="#fff"><use xlink:href="#a"/></mask><use fill="url(#b)" xlink:href="#a"/><path fill="url(#c)" mask="url(#d)" d="M6 6h-9v3h9v6h3V9h9V6H9V0H6z"/><path fill="url(#b)" mask="url(#d)" d="M8.516 9.26L7.5 11 6.484 9.26l-2.015-.01.998-1.75-.998-1.75 2.015-.01L7.5 4l1.016 1.74 2.015.01-.998 1.75.998 1.75z"/><path d="M6.55 7.006a.656.656 0 0 1 .425-.664l.55-.184c.263-.087.475.063.475.35V7.5s.321-1.037.5-.5c.179.537-.128 1.526-.128 1.526a.671.671 0 0 1-.63.474h-.484a.577.577 0 0 1-.559-.506l-.148-1.488H6.55z" fill="url(#e)" mask="url(#d)"/><path d="M7.5 2.908c-.511 0-.967.304-1.168.763l-.1.229.457.201.1-.229a.775.775 0 0 1 1.418-.005l.102.228.456-.205-.102-.228a1.275 1.275 0 0 0-1.164-.754H7.5z" fill="url(#b)" mask="url(#d)"/><g mask="url(#d)" fill="url(#f)" fill-rule="nonzero"><path d="M6 3.75L7 4l.5-.5.5.5 1-.25-.404 1.009A.4.4 0 0 1 8.255 5h-1.51a.39.39 0 0 1-.341-.241L6 3.75zM7.5 3a.5.5 0 1 1 0-1 .5.5 0 0 1 0 1z"/></g><g mask="url(#d)"><g transform="translate(6 2)"><mask id="h" fill="#fff"><use xlink:href="#g"/></mask><circle fill="#5169E2" mask="url(#h)" cx="1.5" cy="2.5" r="1"/></g></g><g mask="url(#d)"><g transform="translate(6 2)"><mask id="j" fill="#fff"><use xlink:href="#i"/></mask><circle fill="#D34D43" mask="url(#j)" cx="2.5" cy="2.5" r="1"/></g></g><g mask="url(#d)"><g transform="translate(6 2)"><mask id="l" fill="#fff"><use xlink:href="#k"/></mask><circle fill="#D34D43" mask="url(#l)" cx=".5" cy="2.5" r="1"/></g></g></g></svg>