<svg width="15" height="15" xmlns="http://www.w3.org/2000/svg"><defs><linearGradient x1="50%" y1="0%" x2="50%" y2="100%" id="a"><stop stop-color="#FFF" offset="0%"/><stop stop-color="#F0F0F0" offset="100%"/></linearGradient><linearGradient x1="50%" y1="0%" x2="50%" y2="100%" id="b"><stop stop-color="#3ACC55" offset="0%"/><stop stop-color="#28A940" offset="100%"/></linearGradient><linearGradient x1="50%" y1="0%" x2="50%" y2="100%" id="c"><stop stop-color="#E91C44" offset="0%"/><stop stop-color="#D20F35" offset="100%"/></linearGradient></defs><g fill="none" fill-rule="evenodd"><path fill="url(#a)" d="M0 0h15v15H0z"/><path fill="url(#b)" d="M0 7h15v8H0z"/><path fill="url(#a)" d="M0 0h15v7H0z"/><path d="M6.012 9.538l.85-.144-.658-.311.45-.253s.759.641.759.436c0-.22.713-.124.684-.436-.039-.426-.79-.031-.924-.563-.074-.297-.312-.26-.312-.26l-.756.26-.376.563-.187-.563s-.441.359-.587.563c-.157.22-.324.708-.324.708l.772.322-1.125-.198-.82.198-.504.14.221-.232-.451-.23.451-.272-.22-.183.974.183s.356-.036.49-.183c.17-.186.303-.816.303-.816l-.444-.26-.35.634s-.24-.6-.47-.935c-.172-.25-.734-.823-.734-.823L2 7.265l.404-.807s.32-.28.117-.567c-.203-.287-.375-.93-.375-.93s.425.736.579.68c.217-.081-.271-.753 0-.873.195-.086.23.77.23.77l.221-.42v.523s-.128.624.09.994c.218.371.866.63.866.63s-.168-.372 0-1.086c.114-.484.52-1.309.711-1.573.1-.14-.806.512-.806.512v-.512l-.862-.09-.22.252-.551-.904.684.345h1.044l-.203-.25h-.84s.176-.364 1.043-.364l.41-.277s.56.015.875.027c.28.011.787-.345.787-.345l.142.345-.334.52.334.344-.142.213.245.346h-.437l.334.538-.334-.188.192.522-.192.538.85-.288s0-.772.311-1.122C8.126 3.79 9.68 3 9.68 3s-.082.71.148.765c.333.081 1.79-.584 1.79-.584s-.875.942-.696 1.028c.096.046.257.213.257.213s-.756.618-.883.884c-.126.266.186.584.186.584s-.654 0-.98.288c.98 0 1.78.464 2.255.122.318-.23-1.138-.087-.947-.66.071-.214.257-.46.68-.523.425-.062.575.19.575.19l.229-.347h-.675l1.223-1.195L13 5.306l-.414-.346-.185.578c.44 1.345-1.592 1.63-1.592 1.63l1.255.84-.447.127-.127 1.259.574.466-.755-.198L9.827 10l.295-.462-.62.124.414-.396-.415-.183.53-.147.668.457s.33-.428.367-.655c.037-.234-.145-.73-.145-.73s-.983-.021-1.33-.107a1.058 1.058 0 0 1-.548-.359l-.394.465s1.373.515 1.03.731c-.08.05-.472-.097-.472-.097s-.677.79-1.11.897c-.196.048.552.322.552.322s-.639-.101-.964-.198c-.34-.101-1.34.198-1.34.198l-.333-.323v.001zm5.513-3.674a.172.172 0 1 0 0-.343.172.172 0 0 0 0 .343z" fill="url(#c)" fill-rule="nonzero"/></g></svg>