<svg width="15" height="15" xmlns="http://www.w3.org/2000/svg" xmlns:xlink="http://www.w3.org/1999/xlink"><defs><linearGradient x1="50%" y1="0%" x2="50%" y2="100%" id="b"><stop stop-color="#FFF" offset="0%"/><stop stop-color="#F0F0F0" offset="100%"/></linearGradient><path id="a" d="M0 0h15v15H0z"/><linearGradient x1="50%" y1="0%" x2="50%" y2="100%" id="c"><stop stop-color="#0A17A7" offset="0%"/><stop stop-color="#030E88" offset="100%"/></linearGradient><linearGradient x1="50%" y1="0%" x2="50%" y2="100%" id="e"><stop stop-color="#E6273E" offset="0%"/><stop stop-color="#CF152B" offset="100%"/></linearGradient></defs><g fill="none" fill-rule="evenodd"><mask id="d" fill="#fff"><use xlink:href="#a"/></mask><use fill="url(#b)" xlink:href="#a"/><path fill="url(#c)" mask="url(#d)" d="M-3 0h21v15H-3z"/><path fill="url(#b)" mask="url(#d)" d="M2.085 9.437H-2.92v-5h5.005L-5-.343-3.882-2 5.08 4.045v-5.608h5v5.608L19.042-2 20.16-.343l-7.085 4.78h5.005v5h-5.005l7.085 4.78-1.118 1.657-8.962-6.045v5.608h-5V9.829l-8.962 6.045L-5 14.216z"/><path d="M11.278 4.702l9.5-6.25a.25.25 0 0 0-.275-.417l-9.5 6.25a.25.25 0 1 0 .275.417zm.732 5.522l8.515 5.74a.25.25 0 1 0 .28-.415l-8.516-5.74a.25.25 0 1 0-.28.415zM3.284 4.27l-8.882-5.987a.25.25 0 1 0-.28.415l8.883 5.986a.25.25 0 0 0 .279-.414zm.685 5.47l-9.845 6.53a.25.25 0 1 0 .276.415l9.846-6.529a.25.25 0 0 0-.277-.417z" fill="#DB1F35" fill-rule="nonzero" mask="url(#d)"/><path fill="url(#e)" mask="url(#d)" d="M-3 9h9v6h3V9h9V6H9V0H6v6h-9z"/></g></svg>