<svg width="15" height="15" xmlns="http://www.w3.org/2000/svg" xmlns:xlink="http://www.w3.org/1999/xlink"><defs><linearGradient x1="50%" y1="0%" x2="50%" y2="100%" id="b"><stop stop-color="#FFF" offset="0%"/><stop stop-color="#F0F0F0" offset="100%"/></linearGradient><path id="a" d="M0 0h15v15H0z"/><linearGradient x1="50%" y1="0%" x2="50%" y2="100%" id="c"><stop stop-color="#FF2B37" offset="0%"/><stop stop-color="#FD0D1B" offset="100%"/></linearGradient></defs><g fill="none" fill-rule="evenodd"><mask id="d" fill="#fff"><use xlink:href="#a"/></mask><use fill="url(#b)" xlink:href="#a"/><path fill="url(#c)" mask="url(#d)" d="M6 6h-9v3h9v6h3V9h9V6H9V0H6z"/><path d="M11.68 3.9l-.147-.9h.734l-.147.9.88-.15v.75l-.88-.15.147.9h-.734l.147-.9-.88.15v-.75l.88.15zm-8.8 0L2.733 3h.734l-.147.9.88-.15v.75l-.88-.15.147.9h-.734l.147-.9L2 4.5v-.75l.88.15zm0 6.75l-.147-.9h.734l-.147.9.88-.15v.75l-.88-.15.147.9h-.734l.147-.9-.88.15v-.75l.88.15zm8.8 0l-.147-.9h.734l-.147.9.88-.15v.75l-.88-.15.147.9h-.734l.147-.9-.88.15v-.75l.88.15z" fill="#FD0D1B" fill-rule="nonzero"/></g></svg>