<svg width="15" height="15" xmlns="http://www.w3.org/2000/svg" xmlns:xlink="http://www.w3.org/1999/xlink"><defs><linearGradient x1="50%" y1="0%" x2="50%" y2="100%" id="b"><stop stop-color="#FFF" offset="0%"/><stop stop-color="#F0F0F0" offset="100%"/></linearGradient><path id="a" d="M0 0h15v15H0z"/><linearGradient x1="50%" y1="0%" x2="50%" y2="100%" id="d"><stop stop-color="#E71924" offset="0%"/><stop stop-color="#D6101B" offset="100%"/></linearGradient><linearGradient x1="50%" y1="0%" x2="50%" y2="100%" id="e"><stop stop-color="#EA1824" offset="0%"/><stop stop-color="#D6101B" offset="100%"/></linearGradient><linearGradient x1="50%" y1="0%" x2="50%" y2="100%" id="f"><stop stop-color="#262626" offset="0%"/><stop stop-color="#0D0D0D" offset="100%"/></linearGradient><linearGradient x1="50%" y1="0%" x2="50%" y2="100%" id="g"><stop stop-color="#ECCE3E" offset="0%"/><stop stop-color="#D9BC2D" offset="100%"/></linearGradient></defs><g fill="none" fill-rule="evenodd"><mask id="c" fill="#fff"><use xlink:href="#a"/></mask><use fill="url(#b)" xlink:href="#a"/><path fill="url(#b)" mask="url(#c)" d="M0 0h15v10H0z"/><path fill="url(#d)" mask="url(#c)" d="M0 10h15v5H0z"/><path d="M6 6H5V4.49A.495.495 0 0 0 4.495 4h-.99A.49.49 0 0 0 3 4.49V8L2 9h11l-1-1V4.49a.495.495 0 0 0-.505-.49h-.99a.49.49 0 0 0-.505.49V6H9V3.49A.49.49 0 0 0 8.505 3h-2.01A.49.49 0 0 0 6 3.49V6z" fill="url(#e)" mask="url(#c)"/><path d="M4 8a.5.5 0 1 1 0-1 .5.5 0 0 1 0 1zm0-2a.5.5 0 1 1 0-1 .5.5 0 0 1 0 1zm3.5 2a.5.5 0 1 1 0-1 .5.5 0 0 1 0 1zm0-3a.5.5 0 1 1 0-1 .5.5 0 0 1 0 1zM11 8a.5.5 0 1 1 0-1 .5.5 0 0 1 0 1zm0-2a.5.5 0 1 1 0-1 .5.5 0 0 1 0 1z" fill="url(#f)" fill-rule="nonzero" mask="url(#c)"/><path d="M7 9.943V12H6v1h2V9.943c.583-.137 1-.508 1-.943 0-.552-.672-1-1.5-1S6 8.448 6 9c0 .435.417.806 1 .943z" fill="url(#g)" mask="url(#c)"/></g></svg>