<svg width="15" height="15" xmlns="http://www.w3.org/2000/svg"><defs><linearGradient x1="50%" y1="0%" x2="50%" y2="100%" id="a"><stop stop-color="#FFF" offset="0%"/><stop stop-color="#F0F0F0" offset="100%"/></linearGradient><linearGradient x1="50%" y1="0%" x2="50%" y2="100%" id="b"><stop stop-color="#25A057" offset="0%"/><stop stop-color="#1C8245" offset="100%"/></linearGradient><linearGradient x1="50%" y1="0%" x2="50%" y2="100%" id="c"><stop stop-color="#31B8F4" offset="0%"/><stop stop-color="#1EA2DC" offset="100%"/></linearGradient><linearGradient x1="50%" y1="0%" x2="50%" y2="100%" id="d"><stop stop-color="#FFE149" offset="0%"/><stop stop-color="#FFDD32" offset="100%"/></linearGradient></defs><g fill="none" fill-rule="evenodd"><path fill="url(#a)" d="M0 0h15v15H0z"/><g transform="translate(5 4)"><g transform="translate(0 1.468)"><rect fill="url(#b)" x="1.333" width="3.333" height="3.333" rx=".175"/><path d="M1.333.16c0-.088.077-.16.167-.16h2.333c.092 0 .13.063.084.14l-.892 1.501-1.57.238-.108 1.288c-.008.092-.014.097-.014.006V.16z" fill="url(#c)"/><circle fill="url(#d)" cx="1.333" cy="1.333" r="1"/></g><rect fill="url(#d)" x="1.333" y="6.801" width="3.333" height="1" rx=".175"/><path d="M1.427 5.435h.013c.027 0 .047.025.047.058v.164c0 .026.014.049.049.049h.04c.003 0 .007 0 .007-.002 0-.003-.003-.005-.006-.009l-.024-.026a.017.017 0 0 1-.007-.013v-.16a.095.095 0 0 0-.049-.085c.027-.016.056-.051.056-.136 0-.098-.04-.14-.12-.14h-.095c-.003 0-.005.002-.005.004s.004.005.006.007l.022.022c.006.005.007.013.007.021v.462c0 .01-.001.016-.007.022l-.022.022c-.002.002-.006.004-.006.006 0 .003.002.005.005.005h.12c.003 0 .004-.002.004-.005 0-.002-.004-.004-.005-.006l-.023-.022c-.005-.006-.007-.012-.007-.022v-.216zm0-.262h.012c.037 0 .052.025.052.102 0 .092-.015.122-.053.122h-.01v-.224h-.001zm.26 0h.042c.01 0 .017.004.02.014l.042.144c0 .002.002.005.006.005.002 0 .004-.002.004-.005v-.19a.007.007 0 0 0-.007-.006h-.197c-.003 0-.004.002-.004.004s.003.005.005.007l.023.022c.005.005.006.013.006.021v.462c0 .01-.001.016-.006.022l-.023.022c-.002.003-.005.004-.005.006 0 .003.001.005.004.005h.197a.007.007 0 0 0 .007-.007v-.191c0-.002-.002-.005-.004-.005-.003 0-.005.002-.006.005l-.041.147c-.003.008-.01.013-.02.013h-.044v-.231h.017c.004 0 .006.001.008.005l.026.055c.002.004.002.006.006.006.002 0 .002-.002.002-.004v-.162c0-.003 0-.004-.002-.004-.003 0-.004.001-.005.004l-.027.054c-.001.004-.004.005-.008.005h-.016v-.223zm.293.394c0 .072-.017.101-.04.101-.029 0-.037-.043-.037-.262 0-.16.008-.233.04-.233.034 0 .067.098.083.155.001.005.004.008.007.008.002 0 .004-.003.004-.005v-.184c0-.008-.002-.013-.006-.013s-.008.004-.015.01c-.007.007-.015.012-.02.012a.024.024 0 0 1-.01-.005.073.073 0 0 0-.049-.017c-.093 0-.097.177-.097.27 0 .127.004.301.1.301.016 0 .031-.009.047-.023a.01.01 0 0 1 .008-.003c.003 0 .004 0 .007.003l.023.02a.011.011 0 0 0 .008.003c.002 0 .004-.001.004-.004v-.238c0-.008.002-.014.007-.018l.022-.018c.003-.003.004-.004.004-.007s-.002-.005-.005-.005h-.113c-.004 0-.007.002-.007.005s.002.004.005.007l.021.018a.02.02 0 0 1 .008.018v.103h.001zm.134.084c0 .01-.001.016-.007.022l-.022.022c-.002.002-.006.004-.006.006 0 .003.002.005.005.005h.12c.003 0 .004-.002.004-.005 0-.002-.004-.004-.005-.006l-.023-.022c-.005-.006-.007-.012-.007-.022V5.19c0-.008.002-.016.007-.021l.023-.022c.001-.002.005-.005.005-.007s-.001-.004-.005-.004h-.12c-.002 0-.004.002-.004.004s.004.005.006.007l.022.022c.006.005.007.013.007.021v.462zm.226-.516c-.091 0-.101.16-.101.27 0 .144.01.301.101.301.092 0 .102-.157.102-.3 0-.11-.01-.271-.102-.271zm0 .038c.023 0 .04.064.04.233 0 .198-.017.262-.04.262-.022 0-.04-.064-.04-.262 0-.17.018-.233.04-.233zm.163.478a.033.033 0 0 1-.006.022l-.019.022c-.002.002-.005.004-.005.007 0 .002.001.004.004.004h.1c.004 0 .005-.002.005-.004 0-.003-.003-.005-.005-.007l-.02-.023c-.006-.005-.008-.011-.008-.02v-.38h.001l.09.415c.001.012.007.019.015.019h.032c.005 0 .007-.003.007-.008v-.509c0-.008.003-.015.007-.021l.019-.022c.002-.002.005-.005.005-.007s-.001-.004-.004-.004h-.1c-.004 0-.006.002-.006.004s.004.005.006.007l.021.023a.027.027 0 0 1 .007.02v.286h-.002l-.07-.328c-.001-.007-.003-.012-.008-.012h-.092c-.003 0-.004.002-.004.004s.003.005.005.007l.019.022a.033.033 0 0 1 .006.021v.462zm-1.018.678c0 .072-.017.101-.04.101-.028 0-.037-.043-.037-.262 0-.16.01-.233.041-.233.034 0 .067.098.082.155.002.005.004.008.007.008s.004-.003.004-.005v-.184c0-.007-.001-.013-.005-.013s-.008.005-.016.01c-.007.007-.015.013-.018.013a.024.024 0 0 1-.012-.005.073.073 0 0 0-.048-.017c-.094 0-.098.176-.098.27 0 .127.004.301.1.301.016 0 .032-.01.048-.023A.01.01 0 0 1 1.5 6.44c.003 0 .005.001.008.004l.023.02a.011.011 0 0 0 .007.003c.003 0 .004-.001.004-.004v-.24a.02.02 0 0 1 .008-.016l.022-.018c.002-.003.003-.005.003-.008s-.002-.004-.005-.004h-.113c-.003 0-.006.001-.006.004s.001.005.004.008l.022.018a.02.02 0 0 1 .008.017v.104zm.127.057c0 .047.031.082.091.082.052 0 .089-.035.089-.082v-.435c0-.007.002-.015.007-.021l.023-.022c.002-.002.003-.005.003-.007s-.001-.004-.004-.004h-.104c-.004 0-.005.002-.005.004s.001.005.004.007l.023.022c.005.005.007.012.007.021v.415c0 .033-.008.064-.036.064-.036 0-.04-.03-.04-.064v-.415a.04.04 0 0 1 .007-.021l.024-.022.004-.007a.005.005 0 0 0-.005-.004h-.117c-.003 0-.004.002-.004.004s.001.005.004.007l.023.022c.005.005.007.012.007.021v.435h-.001zm.378.035c0 .006 0 .012-.004.015l-.02.02c-.003.003-.005.005-.005.007 0 .003.001.005.005.005h.11c.003 0 .005-.002.005-.005 0-.002-.002-.004-.005-.006l-.022-.02c-.005-.005-.007-.014-.008-.02l-.073-.512c0-.004-.003-.008-.006-.008h-.029c-.003 0-.005.002-.006.006l-.07.512c0 .007 0 .015-.005.02l-.022.021c-.002.002-.005.005-.005.007 0 .003.001.005.005.005h.087c.004 0 .005-.002.005-.005 0-.002-.004-.005-.007-.009l-.017-.017a.017.017 0 0 1-.004-.014l.012-.084c0-.003.002-.005.004-.005h.057c.003 0 .006.003.007.007l.011.08zm-.07-.127c-.001 0-.003-.002-.002-.005l.025-.187h.002l.026.187c0 .002-.001.004-.003.004H1.92v.001zm.207.12a.031.031 0 0 1-.007.02l-.023.023c-.002.002-.006.004-.006.006 0 .003.002.005.005.005h.1c.077 0 .123-.052.123-.3 0-.197-.046-.271-.122-.271h-.101c-.003 0-.005.002-.005.004s.004.005.006.007l.022.022c.006.005.007.012.007.021v.462zm.058-.48H2.2c.03 0 .058.03.058.234 0 .233-.028.262-.058.262h-.014v-.495zm.258 0h.044c.01 0 .016.005.02.015l.041.144c0 .002.003.005.006.005.002 0 .004-.002.004-.005v-.19a.007.007 0 0 0-.007-.006h-.197c-.003 0-.004.002-.004.004s.003.005.005.007l.023.022c.005.005.007.012.007.021v.462a.032.032 0 0 1-.007.022l-.023.022c-.002.002-.005.004-.005.006 0 .003.001.005.004.005h.197a.007.007 0 0 0 .007-.007V6.27c0-.003-.002-.005-.004-.005-.003 0-.005.002-.005.005l-.042.147c-.002.008-.01.013-.02.013h-.044v-.232h.017a.01.01 0 0 1 .009.005l.026.056c.001.003.002.006.005.006.002 0 .003-.002.003-.004V6.1c0-.003 0-.005-.003-.005s-.003.002-.005.005l-.026.053c-.002.004-.005.006-.009.006h-.017v-.224zm.177.48c0 .008-.001.015-.007.02l-.022.023c-.002.002-.006.004-.006.006 0 .003.002.005.005.005h.187c.006 0 .008-.004.008-.01V6.27c0-.004-.002-.006-.004-.006-.003 0-.003.002-.004.006l-.048.148c-.003.008-.01.011-.02.011h-.03V5.95c0-.009.002-.016.006-.021l.024-.022c.001-.002.005-.005.005-.007s-.001-.004-.005-.004h-.12c-.002 0-.004.002-.004.004s.004.005.006.007l.022.022c.006.005.007.012.007.021v.462zm.306-.517c-.092 0-.101.16-.101.27 0 .144.009.301.101.301.092 0 .102-.157.102-.3 0-.11-.01-.271-.102-.271zm0 .038c.023 0 .04.064.04.233 0 .198-.017.262-.04.262s-.04-.064-.04-.262c0-.17.017-.233.04-.233zm.16.451c0 .047.03.082.091.082.052 0 .088-.035.088-.082v-.435c0-.007.002-.015.007-.021l.023-.022.004-.007a.005.005 0 0 0-.004-.004H3.19a.005.005 0 0 0-.005.004l.004.007.024.022a.033.033 0 0 1 .006.021v.415c0 .033-.008.064-.036.064-.036 0-.038-.03-.038-.064v-.415c0-.007.001-.015.006-.021l.023-.022c.003-.002.004-.005.004-.007s-.001-.004-.005-.004h-.116a.005.005 0 0 0-.005.004l.004.007.023.022c.005.005.007.012.007.021v.435zm.26.027c0 .009-.001.016-.007.022l-.022.022c-.002.002-.006.004-.006.006 0 .003.002.005.005.005h.125c.003 0 .004-.002.004-.005 0-.002-.003-.004-.005-.006l-.028-.022c-.007-.005-.007-.013-.007-.022v-.211h.026c.068 0 .1-.06.1-.157 0-.117-.041-.148-.1-.148h-.115c-.003 0-.005.002-.005.004s.004.005.006.007l.022.022c.006.005.007.012.007.021v.462zm.059-.478h.022c.032 0 .042.025.042.11 0 .084-.01.119-.042.119h-.022v-.23zm.248 0h.043c.01 0 .017.004.02.014l.04.144c.002.002.004.005.007.005.002 0 .004-.002.004-.005v-.19c0-.004-.003-.006-.006-.006h-.198a.005.005 0 0 0-.004.004c0 .002.004.005.005.007l.023.022c.006.005.007.012.007.021v.462c0 .009-.001.016-.007.022l-.023.022c-.001.002-.005.004-.005.006 0 .003.002.005.004.005h.198a.007.007 0 0 0 .006-.007V6.27c0-.003-.002-.005-.004-.005s-.004.002-.005.005l-.041.147a.022.022 0 0 1-.021.013h-.043v-.232h.016a.01.01 0 0 1 .009.005l.025.056c.002.003.003.006.006.006.002 0 .003-.002.003-.004V6.1c0-.003 0-.005-.003-.005-.002 0-.003.002-.004.005l-.027.053c-.002.004-.005.006-.009.006h-.016v-.224z" fill="#000" fill-rule="nonzero"/><path d="M4.65.522C5.566.245 5.84.196 5.97.601a.667.667 0 0 1-.437.836 5.644 5.644 0 0 0-.648.255c-.206.097-.356.19-.413.247-.066.072-.126.15-.178.233a5.76 5.76 0 0 0-.223.37c-.144.26-1.372 1.274-1.626 1.335-.2.048-.348.102-.391.133a1.16 1.16 0 0 0-.167.17 3.8 3.8 0 0 0-.228.298c-.148.21-.285.427-.412.65a.667.667 0 0 1-.907.255C-.101 5.135.543 3.7.871 3.315c.142-.166.274-.294.407-.389.208-.149.484-.256.853-.345.18-.044.376-.08.581-.111-.1.015-.115.03-.127.047a1.64 1.64 0 0 0 .096-.169l.052-.103.089-.186c.036-.073.06-.123.085-.165.095-.172.187-.325.275-.458.12-.181.233-.325.345-.438.133-.135.586-.313 1.122-.476z" fill="#FFF"/><path d="M3.764 1.233a2.547 2.547 0 0 0-.303.387 6.824 6.824 0 0 0-.263.436c-.11.199-.324.727-.436.744-.185.026-.37.061-.551.105-.316.076-.564.168-.738.292-.112.08-.226.192-.347.334-.092.109-.783 1.471-.623 1.561a.333.333 0 0 0 .454-.127c.133-.233.276-.46.43-.679.077-.111.16-.22.246-.323.067-.083.143-.158.227-.224.087-.062.269-.129.507-.186.155-.038 1.31-.986 1.414-1.173.073-.134.152-.264.236-.392.084-.127.158-.224.22-.285.09-.092.271-.202.508-.313.224-.104.454-.195.689-.27A.333.333 0 0 0 5.651.7c-.055-.175-1.728.373-1.887.533z" fill="#29568D"/></g></g></svg>