<svg width="15" height="15" xmlns="http://www.w3.org/2000/svg" xmlns:xlink="http://www.w3.org/1999/xlink"><defs><linearGradient x1="50%" y1="0%" x2="50%" y2="100%" id="b"><stop stop-color="#07319C" offset="0%"/><stop stop-color="#00247E" offset="100%"/></linearGradient><path id="a" d="M0 0h15v15H0z"/><linearGradient x1="50%" y1="0%" x2="50%" y2="100%" id="d"><stop stop-color="#1E1E1E" offset="0%"/><stop offset="100%"/></linearGradient><ellipse id="e" cx=".804" cy=".818" rx="1" ry="1"/><linearGradient x1="50%" y1="0%" x2="50%" y2="100%" id="f"><stop stop-color="#FFF" offset="0%"/><stop stop-color="#F0F0F0" offset="100%"/></linearGradient><linearGradient x1="50%" y1="0%" x2="50%" y2="100%" id="h"><stop stop-color="#A2ADB0" offset="0%"/><stop stop-color="#8B9497" offset="100%"/></linearGradient><ellipse id="i" cx=".804" cy=".818" rx="1" ry="1"/><linearGradient x1="50%" y1="0%" x2="50%" y2="100%" id="j"><stop stop-color="#4F4F4F" offset="0%"/><stop stop-color="#2B2B2B" offset="100%"/></linearGradient><linearGradient x1="50%" y1="0%" x2="50%" y2="100%" id="l"><stop stop-color="#FEC241" offset="0%"/><stop stop-color="#FEBB2C" offset="100%"/></linearGradient><linearGradient x1="50%" y1="0%" x2="50%" y2="100%" id="m"><stop stop-color="#A84B14" offset="0%"/><stop stop-color="#913F0E" offset="100%"/></linearGradient><linearGradient x1="50%" y1="0%" x2="50%" y2="100%" id="n"><stop stop-color="#CFB063" offset="0%"/><stop stop-color="#BEA157" offset="100%"/></linearGradient><linearGradient x1="50%" y1="0%" x2="50%" y2="100%" id="o"><stop stop-color="#2D42FF" offset="0%"/><stop stop-color="#0B24FC" offset="100%"/></linearGradient><linearGradient x1="0%" y1="0%" x2="100%" y2="50%" id="p"><stop stop-color="#E3DC3D" offset="0%"/><stop stop-color="#CFC82A" offset="100%"/></linearGradient><linearGradient x1="50%" y1="0%" x2="50%" y2="100%" id="q"><stop stop-color="#7F7D7D" offset="0%"/><stop stop-color="#656263" offset="100%"/></linearGradient><path d="M.004.276A.27.27 0 0 1 .077.082.26.26 0 0 1 .265 0h1.077c.146 0 .267.125.269.276l.012.951a.285.285 0 0 1-.11.212l-.587.394a.218.218 0 0 1-.224 0L.13 1.439a.288.288 0 0 1-.113-.211L.004.276z" id="r"/><path d="M.004.276A.27.27 0 0 1 .077.082.26.26 0 0 1 .265 0h1.077c.146 0 .267.125.269.276l.012.951a.285.285 0 0 1-.11.212l-.587.394a.218.218 0 0 1-.224 0L.13 1.439a.288.288 0 0 1-.113-.211L.004.276z" id="t"/><path d="M.004.276A.27.27 0 0 1 .077.082.26.26 0 0 1 .265 0h1.077c.146 0 .267.125.269.276l.012.951a.285.285 0 0 1-.11.212l-.587.394a.218.218 0 0 1-.224 0L.13 1.439a.288.288 0 0 1-.113-.211L.004.276z" id="v"/><linearGradient x1="50%" y1="0%" x2="50%" y2="100%" id="w"><stop stop-color="#0F8012" offset="0%"/><stop stop-color="#0B6A0D" offset="100%"/></linearGradient><path d="M.004.276A.27.27 0 0 1 .077.082.26.26 0 0 1 .265 0h1.077c.146 0 .267.125.269.276l.012.951a.285.285 0 0 1-.11.212l-.587.394a.218.218 0 0 1-.224 0L.13 1.439a.288.288 0 0 1-.113-.211L.004.276z" id="y"/><linearGradient x1="50%" y1="0%" x2="50%" y2="100%" id="z"><stop stop-color="#FFCF44" offset="0%"/><stop stop-color="#FCC72E" offset="100%"/></linearGradient><linearGradient x1="50%" y1="0%" x2="50%" y2="100%" id="B"><stop stop-color="#DB1E36" offset="0%"/><stop stop-color="#D51931" offset="100%"/></linearGradient></defs><g fill="none" fill-rule="evenodd"><mask id="c" fill="#fff"><use xlink:href="#a"/></mask><use fill="url(#b)" xlink:href="#a"/><g mask="url(#c)"><g transform="translate(9.25 8)"><ellipse cx=".804" cy=".818" rx="1" ry="1" fill="url(#d)" transform="translate(2.143 3.273)"/><g transform="translate(2.143 3.273)"><mask id="g" fill="#fff"><use xlink:href="#e"/></mask><ellipse fill="url(#f)" mask="url(#g)" cx=".536" cy="1.091" rx="1" ry="1"/></g><ellipse cx=".804" cy=".818" rx="1" ry="1" fill="url(#h)" transform="translate(0 3.273)"/><g transform="translate(0 3.273)"><mask id="k" fill="#fff"><use xlink:href="#i"/></mask><ellipse fill="url(#j)" mask="url(#k)" cx="1.071" cy="1.091" rx="1" ry="1"/></g><path d="M1.875 5.727c.444.273.804.15.804 0s-.36-.272-.804-.272c-.444 0-.804.122-.804.272 0 .15.36.273.804 0z" fill="url(#l)"/><ellipse fill="url(#f)" cx="2.946" cy="1.909" rx="1" ry="1"/><ellipse fill="url(#m)" cx="1.875" cy="1.364" rx="1" ry="1"/><ellipse fill="url(#n)" cx="1.875" cy=".955" rx="1" ry="1"/><ellipse fill="url(#f)" cx="1.875" cy="5.182" rx="1" ry="1"/><ellipse fill="url(#f)" cx=".804" cy="1.909" rx="1" ry="1"/><ellipse fill="url(#o)" cx="1.071" cy="2.455" rx="1" ry="1"/><ellipse fill="url(#o)" cx="2.679" cy="2.455" rx="1" ry="1"/><ellipse fill="url(#p)" cx="3.214" cy="3.273" rx="1" ry="1"/><path d="M1.607 3l-.268.273h1.072L2.143 3l.268-.818s-.24-.546-.536-.546c-.296 0-.536.546-.536.546L1.607 3z" fill="url(#q)"/><path d="M1.875 2.455s.268-.062.268-.208c0-.004-.268-.065-.268-.065s-.268.06-.268.065c0 .146.268.208.268.208z" fill="#5D0543"/><path d="M.004.276A.27.27 0 0 1 .077.082.26.26 0 0 1 .265 0h1.077c.146 0 .267.125.269.276l.012.951a.285.285 0 0 1-.11.212l-.587.394a.218.218 0 0 1-.224 0L.13 1.439a.288.288 0 0 1-.113-.211L.004.276z" fill="url(#f)" transform="translate(1.071 3.273)"/><g transform="translate(1.071 3.273)"><mask id="s" fill="#fff"><use xlink:href="#r"/></mask><ellipse fill="#225DA4" mask="url(#s)" cx="1.339" cy="1.364" rx="1" ry="1"/></g><g transform="translate(1.071 3.273)"><mask id="u" fill="#fff"><use xlink:href="#t"/></mask><ellipse fill="#225DA4" mask="url(#u)" cx=".268" cy=".818" rx="1" ry="1"/></g><g transform="translate(1.071 3.273)"><mask id="x" fill="#fff"><use xlink:href="#v"/></mask><path fill="url(#w)" mask="url(#x)" d="M0 0h1.607L.804 1.636z"/></g><g transform="translate(1.071 3.273)"><mask id="A" fill="#fff"><use xlink:href="#y"/></mask><ellipse fill="url(#z)" mask="url(#A)" cx=".804" cy=".818" rx="1" ry="1"/></g></g></g><g mask="url(#c)"><path d="M5 4.23L.648.5H2.66L6.16 3h.697L11.5.098V1.25c0 .303-.167.627-.418.806L8 4.257v.513l3.137 2.69c.462.395.204 1.04-.387 1.04-.245 0-.545-.096-.75-.242L6.84 6h-.697L1.5 8.902v-1.66l3.5-2.5V4.23z" fill="url(#f)" transform="translate(-2 -1)"/><path d="M5.5 4L2 1h.5L6 3.5h1L11 1v.25a.537.537 0 0 1-.208.399L7.5 4v1l3.312 2.839c.104.089.072.161-.062.161a.898.898 0 0 1-.458-.149L7 5.5H6L2 8v-.5L5.5 5V4z" fill="url(#B)" transform="translate(-2 -1)"/><path d="M2 3.5v2h3.5v2.505c0 .273.214.495.505.495h.99a.496.496 0 0 0 .505-.495V5.5h3.51a.49.49 0 0 0 .49-.505v-.99a.495.495 0 0 0-.49-.505H7.5V1h-2v2.5H2z" fill="url(#f)" transform="translate(-2 -1)"/><path fill="url(#B)" d="M2 4h4V1h1v3h4v1H7v3H6V5H2z" transform="translate(-2 -1)"/></g></g></svg>