<svg width="15" height="15" xmlns="http://www.w3.org/2000/svg" xmlns:xlink="http://www.w3.org/1999/xlink"><defs><linearGradient x1="50%" y1="0%" x2="50%" y2="100%" id="b"><stop stop-color="#FFF" offset="0%"/><stop stop-color="#F0F0F0" offset="100%"/></linearGradient><path id="a" d="M0 0h15v15H0z"/><linearGradient x1="50%" y1="0%" x2="50%" y2="100%" id="c"><stop stop-color="#FF202D" offset="0%"/><stop stop-color="#FD0D1B" offset="100%"/></linearGradient><linearGradient x1="50%" y1="0%" x2="50%" y2="100%" id="e"><stop stop-color="#2027AC" offset="0%"/><stop stop-color="#191F94" offset="100%"/></linearGradient><linearGradient x1="50%" y1="0%" x2="50%" y2="100%" id="f"><stop stop-color="#FF212E" offset="0%"/><stop stop-color="#FD0D1B" offset="100%"/></linearGradient></defs><g fill="none" fill-rule="evenodd"><mask id="d" fill="#fff"><use xlink:href="#a"/></mask><use fill="url(#b)" xlink:href="#a"/><path fill="url(#c)" mask="url(#d)" d="M-3 0h21v5H-3z"/><path d="M5 4l.5-.5.5.5v1H5V4zm2 0l.5-.5.5.5v1H7V4zm2 0l.5-.5.5.5v1H9V4z" fill="#1895DB" fill-rule="nonzero" opacity=".5" mask="url(#d)"/><path d="M6 4l.5-.5.5.5v1H6V4zm2 0l.5-.5.5.5v1H8V4z" fill="#191F94" fill-rule="nonzero" opacity=".5" mask="url(#d)"/><path fill="url(#e)" mask="url(#d)" d="M-3 10h21v5H-3z"/><path d="M-3 10V5h21v5H-3zm12 0h1l-.273.547c-.126.25-.454.453-.727.453v-1zm-2 0h1v1H7v-1zm-2 0h1v1a.876.876 0 0 1-.727-.453L5 10z" fill="url(#b)" fill-rule="nonzero" mask="url(#d)"/><path d="M7 5h1v1H7V5zm2 0h.5l.5 1H9V5zM5.5 5H6v1H5l.5-1zM6 6h1v1H6V6zm2 0h1v1H8V6zM7 7h1v1H7V7zm2 0h1v1H9V7zM8 8h1v1H8V8zM5 7h1v1H5V7zm1 1h1v1H6V8zM5 9h1v1H5V9zm2 0h1v1H7V9zm2 0h1v1H9V9zm-1 1h1v1H8v-1zm-2 0h1v1H6v-1z" fill="url(#f)" fill-rule="nonzero" mask="url(#d)"/></g></svg>