<svg width="15" height="15" xmlns="http://www.w3.org/2000/svg"><defs><linearGradient x1="50%" y1="0%" x2="50%" y2="100%" id="a"><stop stop-color="#E52D42" offset="0%"/><stop stop-color="#CB1D31" offset="100%"/></linearGradient><linearGradient x1="50%" y1="0%" x2="50%" y2="100%" id="b"><stop stop-color="#FFF" offset="0%"/><stop stop-color="#F0F0F0" offset="100%"/></linearGradient><linearGradient x1="50%" y1="0%" x2="50%" y2="100%" id="c"><stop stop-color="#F8DD4E" offset="0%"/><stop stop-color="#F9DA38" offset="100%"/></linearGradient></defs><g fill="none" fill-rule="evenodd"><path fill="url(#a)" d="M0 0h15v15H0z"/><path d="M8.929.667H7.5L6.429 3l-1.072-.667S4.58.607 4.286.333C3.992.06 3.694.313 2.764.566c-.929.253-.965.543-1.328.543C1.288 1.11.82.603.559.451.174.23.036.333.129.667c.04.144.345.322.538.58.254.34.404.753.404.753s.349-.304.536-.353c.284-.076.604.053.98 0 .477-.07.984-.314.984-.314l.125 1.272s-1.7 1.473-1.553 2.062c.146.588 1.763 1.31 2.143 1.826.379.516-.226.708-.226.956 0 .247-.063.577.226.478.288-.099.323-.528.588-.918.182-.268.328-.41.354-.516.061-.26-.734-.943-1.168-1.426-.206-.231-.622-.544-.622-.544l1.226-.856s2.119.816 2.597.544c.479-.272.596-2.878.596-2.878L9.33 1 8.929.667z" fill="url(#b)" transform="translate(3 4)"/><path d="M5.357 6.333C5.16 6.333 5 6.184 5 6c0-.184.16-.333.357-.333.197 0 .357.149.357.333 0 .184-.16.333-.357.333zM6.786 1c-.198 0-.357-.15-.357-.333 0-.184.16-.334.357-.334.197 0 .357.15.357.334 0 .184-.16.333-.357.333zm0 2.667c-.198 0-.357-.15-.357-.334 0-.184.16-.333.357-.333.197 0 .357.15.357.333 0 .184-.16.334-.357.334zM2.5 5c-.197 0-.357-.15-.357-.333 0-.184.16-.334.357-.334.197 0 .357.15.357.334 0 .184-.16.333-.357.333zm1.429-4C3.73 1 3.57.85 3.57.667c0-.184.16-.334.358-.334.197 0 .357.15.357.334 0 .184-.16.333-.357.333zm.714 2.667c-.197 0-.357-.299-.357-.667 0-.368.16-.667.357-.667.197 0 .357.299.357.667 0 .368-.16.667-.357.667zM1.07 2.333C.874 2.333.714 2.184.714 2c0-.184.16-.333.357-.333.198 0 .358.149.358.333 0 .184-.16.333-.358.333z" fill="url(#c)" fill-rule="nonzero" transform="translate(3 4)"/></g></svg>