<svg width="15" height="15" xmlns="http://www.w3.org/2000/svg" xmlns:xlink="http://www.w3.org/1999/xlink"><defs><linearGradient x1="50%" y1="0%" x2="50%" y2="100%" id="b"><stop stop-color="#FFF" offset="0%"/><stop stop-color="#F0F0F0" offset="100%"/></linearGradient><path id="a" d="M0 0h15v15H0z"/><linearGradient x1="50%" y1="0%" x2="50%" y2="100%" id="c"><stop stop-color="#38BB56" offset="0%"/><stop stop-color="#2B9F45" offset="100%"/></linearGradient><linearGradient x1="50%" y1="0%" x2="50%" y2="100%" id="e"><stop stop-color="#DE1B27" offset="0%"/><stop stop-color="#D80915" offset="100%"/></linearGradient></defs><g fill="none" fill-rule="evenodd"><mask id="d" fill="#fff"><use xlink:href="#a"/></mask><use fill="url(#b)" xlink:href="#a"/><path fill="url(#c)" mask="url(#d)" d="M-3 0h21v5H-3z"/><path fill="url(#e)" mask="url(#d)" d="M-3 10h21v5H-3z"/><path fill="url(#b)" mask="url(#d)" d="M-3 5h21v5H-3z"/><path d="M0 4.252C0 4.113.107 4 .252 4h.496C.887 4 1 4.107 1 4.252v.496A.248.248 0 0 1 .748 5H.252A.249.249 0 0 1 0 4.748v-.496zm2 0C2 4.113 2.107 4 2.252 4h.496c.139 0 .252.107.252.252v.496A.248.248 0 0 1 2.748 5h-.496A.249.249 0 0 1 2 4.748v-.496zm2 0C4 4.113 4.107 4 4.252 4h.496c.139 0 .252.107.252.252v.496A.248.248 0 0 1 4.748 5h-.496A.249.249 0 0 1 4 4.748v-.496zm2 0C6 4.113 6.107 4 6.252 4h.496c.139 0 .252.107.252.252v.496A.248.248 0 0 1 6.748 5h-.496A.249.249 0 0 1 6 4.748v-.496zm1 0C7 4.113 7.107 4 7.252 4h.496c.139 0 .252.107.252.252v.496A.248.248 0 0 1 7.748 5h-.496A.249.249 0 0 1 7 4.748v-.496zm0 0C7 4.113 7.107 4 7.252 4h.496c.139 0 .252.107.252.252v.496A.248.248 0 0 1 7.748 5h-.496A.249.249 0 0 1 7 4.748v-.496zm1 0C8 4.113 8.107 4 8.252 4h.496c.139 0 .252.107.252.252v.496A.248.248 0 0 1 8.748 5h-.496A.249.249 0 0 1 8 4.748v-.496zm2 0c0-.139.107-.252.252-.252h.496c.139 0 .252.107.252.252v.496a.248.248 0 0 1-.252.252h-.496A.249.249 0 0 1 10 4.748v-.496zm2 0c0-.139.107-.252.252-.252h.496c.139 0 .252.107.252.252v.496a.248.248 0 0 1-.252.252h-.496A.249.249 0 0 1 12 4.748v-.496zm2 0c0-.139.107-.252.252-.252h.496c.139 0 .252.107.252.252v.496a.248.248 0 0 1-.252.252h-.496A.249.249 0 0 1 14 4.748v-.496zm-14 6C0 10.113.107 10 .252 10h.496c.139 0 .252.107.252.252v.496A.248.248 0 0 1 .748 11H.252A.249.249 0 0 1 0 10.748v-.496zm2 0c0-.139.107-.252.252-.252h.496c.139 0 .252.107.252.252v.496a.248.248 0 0 1-.252.252h-.496A.249.249 0 0 1 2 10.748v-.496zm2 0c0-.139.107-.252.252-.252h.496c.139 0 .252.107.252.252v.496a.248.248 0 0 1-.252.252h-.496A.249.249 0 0 1 4 10.748v-.496zm2 0c0-.139.107-.252.252-.252h.496c.139 0 .252.107.252.252v.496a.248.248 0 0 1-.252.252h-.496A.249.249 0 0 1 6 10.748v-.496zm1 0c0-.139.107-.252.252-.252h.496c.139 0 .252.107.252.252v.496a.248.248 0 0 1-.252.252h-.496A.249.249 0 0 1 7 10.748v-.496zm0 0c0-.139.107-.252.252-.252h.496c.139 0 .252.107.252.252v.496a.248.248 0 0 1-.252.252h-.496A.249.249 0 0 1 7 10.748v-.496zm1 0c0-.139.107-.252.252-.252h.496c.139 0 .252.107.252.252v.496a.248.248 0 0 1-.252.252h-.496A.249.249 0 0 1 8 10.748v-.496zm2 0c0-.139.107-.252.252-.252h.496c.139 0 .252.107.252.252v.496a.248.248 0 0 1-.252.252h-.496a.249.249 0 0 1-.252-.252v-.496zm2 0c0-.139.107-.252.252-.252h.496c.139 0 .252.107.252.252v.496a.248.248 0 0 1-.252.252h-.496a.249.249 0 0 1-.252-.252v-.496zm2 0c0-.139.107-.252.252-.252h.496c.139 0 .252.107.252.252v.496a.248.248 0 0 1-.252.252h-.496a.249.249 0 0 1-.252-.252v-.496z" fill-opacity=".5" fill="#FFF" fill-rule="nonzero" mask="url(#d)"/><g mask="url(#d)"><g transform="translate(6 6)"><path d="M.591.642a1.25 1.25 0 1 0 1.83.014L.591.642z" stroke="#D80915" stroke-width=".5"/><rect fill="#D80915" x="1" y="1" width="1" height="2" rx=".5"/></g></g></g></svg>