<svg width="15" height="15" xmlns="http://www.w3.org/2000/svg"><defs><linearGradient x1="50%" y1="0%" x2="50%" y2="100%" id="a"><stop stop-color="#199E56" offset="0%"/><stop stop-color="#0F7A40" offset="100%"/></linearGradient><linearGradient x1="50%" y1="0%" x2="50%" y2="100%" id="b"><stop stop-color="#262626" offset="0%"/><stop stop-color="#0D0D0D" offset="100%"/></linearGradient><linearGradient x1="50%" y1="0%" x2="50%" y2="100%" id="c"><stop stop-color="#FFF" offset="0%"/><stop stop-color="#F0F0F0" offset="100%"/></linearGradient><linearGradient x1="50%" y1="0%" x2="50%" y2="100%" id="d"><stop stop-color="#E6223A" offset="0%"/><stop stop-color="#CC162C" offset="100%"/></linearGradient></defs><g fill="none" fill-rule="evenodd"><path fill="url(#a)" d="M0 10h15v5H0z"/><path fill="url(#b)" d="M0 0h15v5H0z"/><path fill="url(#c)" d="M0 5h15v5H0z"/><path fill="url(#d)" d="M0 0l7 7.5L0 15z"/><path fill="url(#c)" d="M2.5 8.368L1.833 9l.066-.93L1 7.93l.749-.526-.451-.81.869.273L2.5 6l.333.867.87-.274-.453.81.75.527-.899.14.067.93z"/></g></svg>