<svg width="15" height="15" xmlns="http://www.w3.org/2000/svg" xmlns:xlink="http://www.w3.org/1999/xlink"><defs><linearGradient x1="50%" y1="0%" x2="50%" y2="100%" id="b"><stop stop-color="#FFF" offset="0%"/><stop stop-color="#F0F0F0" offset="100%"/></linearGradient><path id="a" d="M0 0h15v15H0z"/><linearGradient x1="50%" y1="0%" x2="50%" y2="100%" id="c"><stop stop-color="#E62B3F" offset="0%"/><stop stop-color="#CA1A2C" offset="100%"/></linearGradient><linearGradient x1="50%" y1="0%" x2="50%" y2="100%" id="e"><stop stop-color="#FFDA57" offset="0%"/><stop stop-color="#FCD036" offset="100%"/></linearGradient><linearGradient x1="50%" y1="0%" x2="50%" y2="100%" id="f"><stop stop-color="#0752A2" offset="0%"/><stop stop-color="#034285" offset="100%"/></linearGradient></defs><g fill="none" fill-rule="evenodd"><mask id="d" fill="#fff"><use xlink:href="#a"/></mask><use fill="url(#b)" xlink:href="#a"/><path fill="url(#c)" mask="url(#d)" d="M-4 0h21v8H-4z"/><circle fill="url(#e)" mask="url(#d)" cx="7.5" cy="8.5" r="2.5"/><path d="M7.5 12.035l-1.224 1.827-.31-2.177L4.071 12.8l.665-2.096-2.191.182 1.508-1.6L2 8.5l2.053-.787-1.508-1.6 2.191.183L4.071 4.2l1.895 1.115.31-2.177L7.5 4.965l1.224-1.827.31 2.177L10.929 4.2l-.665 2.096 2.191-.182-1.508 1.6L13 8.5l-2.053.787 1.508 1.6-2.191-.183.665 2.096-1.895-1.115-.31 2.177L7.5 12.035zm0-.035a3.5 3.5 0 1 0 0-7 3.5 3.5 0 0 0 0 7zM5.86 2.403l-.047-.234.982-.164s-1.318-.311-1.753-.467c-.625-.224-.538-.398-.538-.398s1.785.35 2.665.35c.188 0 .561.468.561.468s.649-.655.959-.677C10.095 1.178 11.61 1 11.61 1s-.44.294-.702.374c-.711.216-2.22.514-2.22.514l-.21.328h1.495l-.63.187.326.304s-.343-.178-.794-.094c-.31.058-.673.265-1.006.35-.818.211-1.309-.56-1.309-.56h-.7z" fill="url(#e)" fill-rule="nonzero" mask="url(#d)"/><path fill="url(#f)" mask="url(#d)" d="M-4 8h21v7H-4z"/><path d="M19.322 12.933l.474.159-.316.948-.474-.158-.47-.156-2.062-.688a1.278 1.278 0 0 0-.62 0l-2.063.688c-.36.12-.897.119-1.254 0l-2.063-.688a1.278 1.278 0 0 0-.62 0l-2.063.688c-.36.12-.897.119-1.254 0l-2.063-.688a1.278 1.278 0 0 0-.62 0l-2.063.688c-.36.12-.897.119-1.254 0l-2.063-.688a1.278 1.278 0 0 0-.62 0l-2.063.688-.475.158-.316-.949.474-.158 2.063-.687c.357-.12.894-.12 1.254 0l2.062.687c.153.051.467.051.621 0l2.063-.687c.357-.12.894-.12 1.254 0l2.062.687c.153.051.467.051.621 0l2.063-.687c.357-.12.894-.12 1.254 0l2.062.687c.153.051.467.051.621 0l2.063-.687c.357-.12.894-.12 1.254 0l2.062.687.469.156zm0-2.5l.474.159-.316.948-.474-.158-.47-.156-2.062-.688a1.278 1.278 0 0 0-.62 0l-2.063.688c-.36.12-.897.119-1.254 0l-2.063-.688a1.278 1.278 0 0 0-.62 0l-2.063.688c-.36.12-.897.119-1.254 0l-2.063-.688a1.278 1.278 0 0 0-.62 0l-2.063.688c-.36.12-.897.119-1.254 0l-2.063-.688a1.278 1.278 0 0 0-.62 0l-2.063.688-.475.158-.316-.949.474-.158 2.063-.687c.357-.12.894-.12 1.254 0l2.062.687c.153.051.467.051.621 0l2.063-.687c.357-.12.894-.12 1.254 0l2.062.687c.153.051.467.051.621 0l2.063-.687c.357-.12.894-.12 1.254 0l2.062.687c.153.051.467.051.621 0l2.063-.687c.357-.12.894-.12 1.254 0l2.062.687.469.156zm0-2.5l.474.159-.316.948-.474-.158-.47-.156-2.062-.688a1.278 1.278 0 0 0-.62 0l-2.063.688c-.36.12-.897.119-1.254 0l-2.063-.688a1.278 1.278 0 0 0-.62 0l-2.063.688c-.36.12-.897.119-1.254 0l-2.063-.688a1.278 1.278 0 0 0-.62 0l-2.063.688c-.36.12-.897.119-1.254 0l-2.063-.688a1.278 1.278 0 0 0-.62 0l-2.063.688-.475.158L-5 7.935l.474-.158 2.063-.687c.357-.12.894-.12 1.254 0l2.062.687c.153.051.467.051.621 0l2.063-.687c.357-.12.894-.12 1.254 0l2.062.687c.153.051.467.051.621 0l2.063-.687c.357-.12.894-.12 1.254 0l2.062.687c.153.051.467.051.621 0l2.063-.687c.357-.12.894-.12 1.254 0l2.062.687.469.156z" fill="#FFF" fill-rule="nonzero" mask="url(#d)"/></g></svg>