<svg width="15" height="15" xmlns="http://www.w3.org/2000/svg"><defs><linearGradient x1="50%" y1="0%" x2="50%" y2="100%" id="a"><stop stop-color="#E6BE53" offset="0%"/><stop stop-color="#D3AD46" offset="100%"/></linearGradient><linearGradient x1="50%" y1="0%" x2="50%" y2="100%" id="b"><stop stop-color="#E01826" offset="0%"/><stop stop-color="#C30A17" offset="100%"/></linearGradient></defs><g fill="none" fill-rule="evenodd"><path fill="url(#a)" d="M0 0h15v15H0z"/><rect fill="url(#b)" x="1" y="1" width="13" height="13" rx=".75"/><path d="M3.253 1.858a.34.34 0 0 0 .494 0l-.144.15.702-.73a.496.496 0 0 1 .562-.09l.066.034c.175.092.206.28.07.422l.144-.15-.702.73a.546.546 0 0 0-.086.584l.032.068c.088.182.159.495.159.693v-.363c0 .2.135.293.317.198l.066-.033c.175-.092.206-.28.07-.422l.144.15a.37.37 0 0 1 0-.514l-.144.15c.16-.175.297-.372.406-.586l.032-.069c.088-.181.196-.485.244-.681l.18-.75c.047-.195.182-.219.298-.059l.624.866c.118.163.213.45.213.662v.72c0 .203-.067.508-.159.697l-.032.068a2.684 2.684 0 0 1-.404.584l-.21.219a2.539 2.539 0 0 1-.562.42l-.066.033c-.175.091-.48.165-.667.165-.193 0-.215.07-.033.165l.066.033c.175.092.428.28.564.422l-.144-.15a.34.34 0 0 0 .494 0l-.144.15a.343.343 0 0 1 .494 0l-.144-.15c.141.159.176.39.088.586l-.032.069a.631.631 0 0 1-.509.33 1.683 1.683 0 0 1-.667-.166l-.066-.033a1.243 1.243 0 0 1-.476-.495l-.032-.068c-.088-.182-.27-.215-.406-.073l.144-.15a.472.472 0 0 0-.056.555l.318.495a.367.367 0 0 1-.096.496l-.476.33a.542.542 0 0 1-.574 0l-.476-.33a.367.367 0 0 1-.096-.496l.318-.495a.472.472 0 0 0-.056-.555l.144.15c-.136-.142-.315-.116-.406.073l-.032.068a1.25 1.25 0 0 1-.476.495l-.066.033c-.175.092-.48.165-.667.165a.611.611 0 0 1-.509-.33L.86 6.08a.557.557 0 0 1 .088-.586l-.144.15a.343.343 0 0 1 .494 0l-.144-.15a.34.34 0 0 0 .494 0l-.144.15c.169-.167.358-.309.564-.422l.066-.033c.175-.092.155-.165-.033-.165a1.683 1.683 0 0 1-.667-.165l-.066-.034a2.588 2.588 0 0 1-.562-.42l-.21-.218a2.633 2.633 0 0 1-.404-.584L.16 3.535A1.868 1.868 0 0 1 0 2.838v-.72c0-.203.097-.502.213-.662L.837.591c.118-.163.25-.139.298.058l.18.75c.061.234.143.462.244.681l.032.069c.088.182.27.444.406.586l-.144-.15a.37.37 0 0 1 0 .514l.144-.15c-.136.142-.112.327.07.422l.066.033c.175.092.317 0 .317-.198v.363c0-.2.067-.504.159-.693l.032-.068a.555.555 0 0 0-.086-.584l-.702-.73.144.15c-.136-.142-.112-.327.07-.422l.066-.033a.503.503 0 0 1 .562.09l.702.729-.144-.15zM2.695.55C2.56.41 2.596.245 2.783.18l.385-.133c.184-.064.478-.064.664 0l.386.134c.184.063.223.228.087.369l-.21.218a.961.961 0 0 1-.595.255.945.945 0 0 1-.595-.255L2.695.55z" fill="url(#a)" fill-rule="nonzero" transform="translate(4 4)"/><path d="M6.8 9.095c0 .199.053.208.13.015 0 0 .22-.746.57-.746s.576.757.576.757c.069.184.124.172.124-.034v-.36c0-.602-.314-1.09-.7-1.09-.386 0-.7.488-.7 1.09v.368z" fill="#215F90"/></g></svg>