<svg width="15" height="15" xmlns="http://www.w3.org/2000/svg"><defs><linearGradient x1="50%" y1="0%" x2="50%" y2="100%" id="a"><stop stop-color="#146BBC" offset="0%"/><stop stop-color="#0B5396" offset="100%"/></linearGradient><linearGradient x1="50%" y1="0%" x2="50%" y2="100%" id="b"><stop stop-color="#E43642" offset="0%"/><stop stop-color="#C32A34" offset="100%"/></linearGradient><linearGradient x1="50%" y1="0%" x2="50%" y2="100%" id="c"><stop stop-color="#F8D246" offset="0%"/><stop stop-color="#F9CE2F" offset="100%"/></linearGradient></defs><g fill="none" fill-rule="evenodd"><path fill="url(#a)" d="M5 0h5v15H5z"/><path d="M0 0h5v15H0V0zm10 0h5v15h-5V0z" fill="url(#b)" fill-rule="nonzero"/><path d="M3 10h1v3H3v-3zm-2 0h1v3H1v-3zm1 2h1l-.5 1-.5-1zm0-2h1l-.5 1-.5-1zm0-1l.5-.5.5.5H2zm.5 1a.5.5 0 1 1 0-1 .5.5 0 0 1 0 1zm0 2a.5.5 0 1 1 0-1 .5.5 0 0 1 0 1z" fill="url(#c)" fill-rule="nonzero"/></g></svg>