<svg width="15" height="15" xmlns="http://www.w3.org/2000/svg" xmlns:xlink="http://www.w3.org/1999/xlink"><defs><linearGradient x1="50%" y1="0%" x2="50%" y2="100%" id="b"><stop stop-color="#345CB3" offset="0%"/><stop stop-color="#23448D" offset="100%"/></linearGradient><path id="a" d="M0 0h15v15H0z"/><linearGradient x1="50%" y1="0%" x2="50%" y2="100%" id="c"><stop stop-color="#FFF" offset="0%"/><stop stop-color="#F0F0F0" offset="100%"/></linearGradient></defs><g fill="none" fill-rule="evenodd"><mask id="d" fill="#fff"><use xlink:href="#a"/></mask><use fill="url(#b)" xlink:href="#a"/><path d="M12.255 2.43c.137-.005.275-.003.412.007.182.013.309.052.3.015-.016-.057-.005-.072-.026-.057-.044.032.022-.006-.244.143-.388.216-.556.38-.471.675.074.26.272.331.736.402l.061.01c.186.028.269.045.324.069.012.005-.011-.032-.004-.055-.006.02-.13.067-.439.127l-.154.029c-.597.12-.895.273-.94.675-.047.44.421.747 1.01.823.6.077 1.123-.117 1.176-.592.035-.302-.181-.483-.522-.55-.232-.045-.537-.044-.902-.009-.41.043-.816.11-1.217.201a.217.217 0 0 0-.166.146.21.21 0 0 0 .052.212.223.223 0 0 0 .216.058c.382-.087.769-.15 1.158-.191.326-.032.593-.033.773.003.146.028.176.053.172.084-.017.162-.294.264-.683.214-.383-.049-.644-.22-.63-.353.015-.137.176-.22.59-.303l.151-.029c.51-.097.697-.169.775-.424.064-.208-.042-.372-.239-.457-.105-.045-.206-.066-.434-.1l-.06-.01c-.265-.04-.378-.081-.381-.095-.005-.013.06-.075.266-.19l.143-.08c.05-.027.096-.056.142-.088.152-.108.236-.229.191-.396-.061-.233-.298-.305-.69-.333a4.366 4.366 0 0 0-.461-.008l-.066.002a.216.216 0 0 0-.207.226.217.217 0 0 0 .232.201l.056-.002zm-10.178 0c.137-.005.275-.003.412.007.182.013.309.052.3.015-.016-.057-.005-.072-.026-.057-.044.032.022-.006-.244.143-.388.216-.556.38-.471.675.074.26.272.331.736.402l.061.01c.185.028.269.045.324.069.012.005-.011-.032-.004-.055-.006.02-.13.067-.439.127l-.155.029c-.597.12-.895.273-.94.675-.047.44.421.747 1.01.823.6.077 1.123-.117 1.176-.592.035-.302-.181-.483-.522-.55-.232-.045-.537-.044-.902-.009-.41.043-.816.11-1.217.201a.217.217 0 0 0-.166.146.21.21 0 0 0 .052.212.223.223 0 0 0 .216.058c.382-.087.769-.15 1.158-.191.326-.032.593-.033.773.003.146.028.176.053.172.084-.017.162-.294.264-.683.214-.383-.049-.644-.22-.63-.353.015-.137.176-.22.59-.303l.151-.029c.511-.097.697-.169.775-.424.064-.208-.042-.372-.239-.457-.105-.045-.206-.066-.434-.1l-.06-.01c-.265-.04-.378-.081-.381-.095-.005-.013.06-.075.266-.19l.144-.08c.048-.027.095-.056.14-.088.153-.108.237-.229.192-.396-.061-.233-.298-.305-.69-.333a4.366 4.366 0 0 0-.461-.008l-.066.002a.216.216 0 0 0-.207.226.218.218 0 0 0 .233.201l.055-.002zm10.178 7.69c.137-.004.275-.002.412.008.182.013.309.052.3.015-.016-.057-.005-.072-.026-.057-.044.032.022-.006-.244.143-.388.216-.556.38-.471.675.074.26.272.331.736.402l.061.01c.186.028.269.045.324.069.012.005-.011-.032-.004-.055-.006.02-.13.067-.439.127l-.154.029c-.597.12-.895.273-.94.675-.047.44.421.747 1.01.823.6.077 1.123-.117 1.176-.592.035-.302-.181-.483-.522-.55-.232-.045-.537-.044-.902-.009-.41.043-.816.11-1.217.201a.213.213 0 0 0-.154.256.22.22 0 0 0 .256.16c.382-.087.769-.15 1.158-.191.326-.032.593-.033.773.003.146.028.176.053.172.084-.017.162-.294.264-.683.214-.383-.049-.644-.22-.63-.353.015-.137.176-.22.59-.303l.151-.029c.51-.097.697-.169.775-.424.064-.208-.042-.372-.239-.457-.105-.045-.206-.066-.434-.1l-.06-.01c-.265-.04-.378-.081-.381-.095-.005-.013.06-.075.266-.19l.143-.08c.05-.027.096-.056.142-.088.152-.108.236-.229.191-.396-.061-.233-.298-.305-.69-.333a4.366 4.366 0 0 0-.461-.008l-.066.002a.216.216 0 0 0-.207.226.217.217 0 0 0 .232.201l.056-.002zm-10.178 0c.137-.004.275-.002.412.008.182.013.309.052.3.015-.016-.057-.005-.072-.026-.057-.044.032.022-.006-.244.143-.388.216-.556.38-.471.675.074.26.272.331.736.402l.061.01c.185.028.269.045.324.069.012.005-.011-.032-.004-.055-.006.02-.13.067-.439.127l-.154.029c-.597.12-.895.273-.94.675-.048.44.421.747 1.01.823.6.077 1.123-.117 1.176-.592.035-.302-.181-.483-.523-.55-.231-.045-.536-.044-.902-.009-.409.043-.815.11-1.216.201a.213.213 0 0 0-.154.256.22.22 0 0 0 .256.16c.382-.087.769-.15 1.158-.191.326-.032.593-.033.772.003.147.028.177.053.173.084-.017.162-.294.264-.683.214-.383-.049-.644-.22-.63-.353.015-.137.176-.22.59-.303l.151-.029c.51-.097.697-.169.775-.424.064-.208-.042-.372-.239-.457-.105-.045-.206-.066-.434-.1l-.06-.01c-.265-.04-.378-.081-.381-.095-.005-.013.06-.075.265-.19l.144-.08c.049-.027.096-.056.142-.088.151-.108.236-.229.19-.396-.06-.233-.297-.305-.689-.333a4.366 4.366 0 0 0-.461-.008l-.066.002a.216.216 0 0 0-.207.226.217.217 0 0 0 .232.201l.056-.002z" fill="url(#c)" fill-rule="nonzero" mask="url(#d)"/><path fill="url(#c)" mask="url(#d)" d="M6 6h-9v3h9v6h3V9h9V6H9V0H6z"/></g></svg>