<svg width="15" height="15" xmlns="http://www.w3.org/2000/svg"><defs><linearGradient x1="50%" y1="0%" x2="50%" y2="100%" id="a"><stop stop-color="#E3283E" offset="0%"/><stop stop-color="#CC162C" offset="100%"/></linearGradient><linearGradient x1="50%" y1="0%" x2="50%" y2="100%" id="b"><stop stop-color="#128A60" offset="0%"/><stop stop-color="#0B6848" offset="100%"/></linearGradient><linearGradient x1="50%" y1="0%" x2="50%" y2="100%" id="c"><stop stop-color="#FFF" offset="0%"/><stop stop-color="#F0F0F0" offset="100%"/></linearGradient></defs><g fill="none" fill-rule="evenodd"><path fill="url(#a)" d="M7 0h8v15H7z"/><path fill="url(#b)" d="M0 0h5v15H0z"/><path fill="url(#c)" d="M5 0h5v15H5z"/><g transform="translate(6 6)"><path d="M0 1.2a1.5 1.5 0 0 0 .748 1.298.3.3 0 0 0 .301-.519A.9.9 0 0 1 .6 1.2a.3.3 0 0 0-.6 0zm2.308 1.264C2.739 2.19 3 1.712 3 1.2a.3.3 0 0 0-.6 0 .9.9 0 0 1-.416.759.3.3 0 1 0 .324.505z" fill="#8C9157" fill-rule="nonzero"/><ellipse fill="#C59262" cx="1.5" cy=".9" rx="1" ry="1"/></g></g></svg>