<svg width="15" height="15" xmlns="http://www.w3.org/2000/svg"><defs><linearGradient x1="50%" y1="0%" x2="50%" y2="100%" id="a"><stop stop-color="#FFE547" offset="0%"/><stop stop-color="#FCE032" offset="100%"/></linearGradient><linearGradient x1="50%" y1="0%" x2="50%" y2="100%" id="b"><stop stop-color="#118C81" offset="0%"/><stop stop-color="#0D7168" offset="100%"/></linearGradient><linearGradient x1="50%" y1="0%" x2="50%" y2="100%" id="c"><stop stop-color="#FFF" offset="0%"/><stop stop-color="#F0F0F0" offset="100%"/></linearGradient><linearGradient x1="50%" y1="0%" x2="50%" y2="100%" id="d"><stop stop-color="#262626" offset="0%"/><stop stop-color="#0D0D0D" offset="100%"/></linearGradient><linearGradient x1="50%" y1="0%" x2="50%" y2="100%" id="e"><stop stop-color="#EF2147" offset="0%"/><stop stop-color="#D01739" offset="100%"/></linearGradient><linearGradient x1="50%" y1="0%" x2="50%" y2="100%" id="f"><stop stop-color="#FDE444" offset="0%"/><stop stop-color="#FCE032" offset="100%"/></linearGradient></defs><g fill="none" fill-rule="evenodd"><path fill="url(#a)" d="M0 11h15v4H0z"/><path fill="url(#b)" d="M0 0h15v4H0z"/><path fill="url(#c)" d="M0 4h15v7H0z"/><path fill="url(#d)" d="M0 5h15v5H0z"/><path fill="url(#e)" d="M0 0l7 7.5L0 15z"/><path fill="url(#f)" d="M2.5 8.292L1.573 9l.354-1.146L1 7.145h1.146L2.5 6l.354 1.145H4l-.927.709L3.427 9z"/></g></svg>