<svg width="15" height="15" xmlns="http://www.w3.org/2000/svg" xmlns:xlink="http://www.w3.org/1999/xlink"><defs><linearGradient x1="50%" y1="0%" x2="50%" y2="100%" id="a"><stop stop-color="#FFF" offset="0%"/><stop stop-color="#F0F0F0" offset="100%"/></linearGradient><path d="M0 0h1.602c.299 0 .742.126.983.275L14.116 7.45c.489.304.399.55-.184.55H6.429l7.764 6.341c.446.364.325.659-.272.659H0V0z" id="b"/><linearGradient x1="50%" y1="0%" x2="50%" y2="100%" id="d"><stop stop-color="#EE1B44" offset="0%"/><stop stop-color="#DD153C" offset="100%"/></linearGradient><linearGradient x1="50%" y1="0%" x2="50%" y2="100%" id="e"><stop stop-color="#0543A8" offset="0%"/><stop stop-color="#003893" offset="100%"/></linearGradient><path d="M0 0h1.602c.299 0 .742.126.983.275L14.116 7.45c.489.304.399.55-.184.55H6.429l7.764 6.341c.446.364.325.659-.272.659H0V0z" id="f"/></defs><g fill="none" fill-rule="evenodd"><path d="M0 0h1.602c.299 0 .742.126.983.275L14.116 7.45c.489.304.399.55-.184.55H6.429l7.764 6.341c.446.364.325.659-.272.659H0V0z" fill="url(#a)"/><mask id="c" fill="#fff"><use xlink:href="#b"/></mask><g mask="url(#c)"><path d="M0 0h1.602c.299 0 .742.126.983.275L14.116 7.45c.489.304.399.55-.184.55H6.429l7.764 6.341c.446.364.325.659-.272.659H0V0z" fill="url(#d)"/><path d="M.536.5v14h13.039l-8.571-7h8.227L2.29.691A1.673 1.673 0 0 0 1.603.5H.536z" stroke="url(#e)"/></g><mask id="g" fill="#fff"><use xlink:href="#f"/></mask><path d="M5.505 5.85a3.93 3.93 0 0 0 .845-.318c-.255.868-1.101 1.47-2.066 1.47-.965 0-1.81-.602-2.066-1.47.253.132.538.24.847.32l.417-.352-.681-.574.917.044-.047-.856.615.636.615-.636-.047.856.917-.044-.682.574.416.35zM4.285 12l-.819.848.062-1.14-1.221.057.907-.765-.908-.765 1.221.058-.06-1.14.819.847.82-.848-.063 1.14 1.222-.057-.908.765.909.765-1.222-.058.061 1.14-.82-.847z" fill="url(#a)" fill-rule="nonzero" mask="url(#g)"/></g></svg>