<svg width="15" height="15" xmlns="http://www.w3.org/2000/svg" xmlns:xlink="http://www.w3.org/1999/xlink"><defs><linearGradient x1="50%" y1="0%" x2="50%" y2="100%" id="a"><stop stop-color="#E02639" offset="0%"/><stop stop-color="#CA1A2C" offset="100%"/></linearGradient><linearGradient x1="50%" y1="0%" x2="50%" y2="100%" id="b"><stop stop-color="#DC2235" offset="0%"/><stop stop-color="#CA1A2C" offset="100%"/></linearGradient><linearGradient x1="50%" y1="0%" x2="50%" y2="100%" id="c"><stop stop-color="#FFF" offset="0%"/><stop stop-color="#F0F0F0" offset="100%"/></linearGradient><circle id="d" cx="2.5" cy="2.5" r="2.5"/><linearGradient x1="50%" y1="0%" x2="50%" y2="100%" id="e"><stop stop-color="#FFA135" offset="0%"/><stop stop-color="#FD9C2D" offset="100%"/></linearGradient><circle id="g" cx="2.5" cy="2.5" r="2.5"/><circle id="i" cx="2.5" cy="2.5" r="2.5"/><linearGradient x1="50%" y1="0%" x2="50%" y2="100%" id="j"><stop stop-color="#DF2034" offset="0%"/><stop stop-color="#CA1A2C" offset="100%"/></linearGradient><circle id="l" cx="2.5" cy="2.5" r="2.5"/><linearGradient x1="50%" y1="0%" x2="50%" y2="100%" id="m"><stop stop-color="#0B4BAD" offset="0%"/><stop stop-color="#08429A" offset="100%"/></linearGradient><circle id="o" cx="2.5" cy="2.5" r="2.5"/></defs><g fill="none" fill-rule="evenodd"><path fill="url(#a)" d="M0 0h15v4H0z"/><path fill="url(#b)" d="M0 11h15v4H0z"/><path fill="url(#c)" d="M0 4h15v7H0z"/><g transform="translate(5 5)"><mask id="f" fill="#fff"><use xlink:href="#d"/></mask><path fill="url(#e)" mask="url(#f)" d="M0 0h5v2.5H0z"/></g><g transform="translate(5 5)"><mask id="h" fill="#fff"><use xlink:href="#g"/></mask><path fill="#FFF" mask="url(#h)" d="M1 1.5h3l-.5 1h-2z"/></g><g transform="translate(5 5)"><mask id="k" fill="#fff"><use xlink:href="#i"/></mask><path d="M2 0h1v1.495A.508.508 0 0 1 2.5 2a.495.495 0 0 1-.5-.505V0zM1 1s.75 1.5 1.5 1.5S4 1 4 1v1c0 .552-.443 1-.999 1H1.999A.997.997 0 0 1 1 2V1z" fill="url(#j)" fill-rule="nonzero" mask="url(#k)"/></g><g transform="translate(5 5)"><mask id="n" fill="#fff"><use xlink:href="#l"/></mask><path fill="url(#m)" mask="url(#n)" d="M0 3h5v2H0z"/></g><g transform="translate(5 5)"><mask id="p" fill="#fff"><use xlink:href="#o"/></mask><path fill="#FFF" mask="url(#p)" d="M0 3.5h5V4H0z"/></g></g></svg>