<svg width="15" height="15" xmlns="http://www.w3.org/2000/svg"><defs><linearGradient x1="50%" y1="0%" x2="50%" y2="100%" id="a"><stop stop-color="#2ACB41" offset="0%"/><stop stop-color="#21AC35" offset="100%"/></linearGradient><linearGradient x1="50%" y1="0%" x2="50%" y2="100%" id="b"><stop stop-color="#FDD043" offset="0%"/><stop stop-color="#FFCD2F" offset="100%"/></linearGradient><linearGradient x1="50%" y1="0%" x2="50%" y2="100%" id="c"><stop stop-color="#E71E43" offset="0%"/><stop stop-color="#D01739" offset="100%"/></linearGradient><linearGradient x1="50%" y1="0%" x2="50%" y2="100%" id="d"><stop stop-color="#262626" offset="0%"/><stop stop-color="#0D0D0D" offset="100%"/></linearGradient></defs><g fill="none" fill-rule="evenodd"><path d="M0 10h15v5H0v-5zM0 0h15v5H0V0z" fill="url(#a)" fill-rule="nonzero"/><path fill="url(#b)" d="M0 5h15v5H0z"/><path fill="url(#c)" d="M0 0l6 7.5L0 15z"/><path d="M8.512 8.338L7.577 9l.315-1.132L7 7.146l1.129-.037L8.512 6l.384 1.109 1.129.037-.893.722L9.447 9l-.935-.662zm3.976 0L11.553 9l.315-1.132-.893-.722 1.13-.037L12.487 6l.383 1.109 1.13.037-.892.722L13.423 9l-.935-.662z" fill="url(#d)" fill-rule="nonzero"/></g></svg>