<svg width="15" height="15" xmlns="http://www.w3.org/2000/svg" xmlns:xlink="http://www.w3.org/1999/xlink"><defs><linearGradient x1="50%" y1="0%" x2="50%" y2="100%" id="a"><stop stop-color="#FFF" offset="0%"/><stop stop-color="#F0F0F0" offset="100%"/></linearGradient><linearGradient x1="50%" y1="0%" x2="50%" y2="100%" id="b"><stop stop-color="#F8CE61" offset="0%"/><stop stop-color="#F3C44B" offset="100%"/></linearGradient><path d="M0 1.25V0s.236.244.55.244C.866.244 1.185 0 1.185 0s.297.244.593.244.59-.244.59-.244v1.25C2.368 2.5 1.184 3 1.184 3S0 2.5 0 1.25z" id="c"/><linearGradient x1="50%" y1="0%" x2="50%" y2="100%" id="d"><stop stop-color="#1E357F" offset="0%"/><stop stop-color="#162966" offset="100%"/></linearGradient><path d="M0 1.25V0s.236.244.55.244C.866.244 1.185 0 1.185 0s.297.244.593.244.59-.244.59-.244v1.25C2.368 2.5 1.184 3 1.184 3S0 2.5 0 1.25z" id="f"/><linearGradient x1="50%" y1="0%" x2="50%" y2="100%" id="g"><stop stop-color="#BC1443" offset="0%"/><stop stop-color="#A30B35" offset="100%"/></linearGradient></defs><g fill="none" fill-rule="evenodd"><path fill="url(#a)" d="M0 0h15v15H0z"/><path d="M10.271 7.752l-1.455 2.94a.128.128 0 0 0 .05.169c.059.032.13.008.16-.054l1.454-2.939a.128.128 0 0 0-.052-.164.115.115 0 0 0-.157.048z" fill="#1583C4"/><path d="M10.475 8.406l-1.648 2.268a.13.13 0 0 0 .026.17c.05.04.12.032.162-.018l1.648-2.267a.13.13 0 0 0-.022-.175.114.114 0 0 0-.166.022z" fill="#1583C4"/><path d="M9.737 8.204l-.926 2.5a.127.127 0 0 0 .067.162.117.117 0 0 0 .153-.07l.926-2.5a.127.127 0 0 0-.069-.156.116.116 0 0 0-.15.064z" fill="#1583C4"/><path d="M4.544 7.787l.071.232c.056.173.115.346.176.509.07.186.139.346.204.472l.035.064c.076.133.196.307.352.513.196.258.4.51.61.757a.114.114 0 0 0 .164.006.13.13 0 0 0 .01-.174 18.08 18.08 0 0 1-.6-.745 4.927 4.927 0 0 1-.333-.485 4.206 4.206 0 0 1-.222-.5 10.199 10.199 0 0 1-.24-.723.122.122 0 0 0-.086-.088.115.115 0 0 0-.115.037.13.13 0 0 0-.025.125z" fill="#409347"/><path d="M11.526 7.75V9c0 .138.106.25.237.25S12 9.138 12 9V7.75a.244.244 0 0 0-.237-.25.244.244 0 0 0-.237.25zm-7.815.577l-.254-.67a.233.233 0 0 0-.306-.134.255.255 0 0 0-.134.32l.474 1.25a.237.237 0 0 0 .22.157.237.237 0 0 0 .22-.157l.473-1.25a.255.255 0 0 0-.133-.32.233.233 0 0 0-.307.134l-.253.67z" fill="#1583C4" fill-rule="nonzero"/><path d="M6.632 2.75s.017.333-.38.5c-.398.167-.805 0-.805 0s.293.182.474.5c.181.319.086.492.237.65.15.16.422.051.53.187.107.136.099.292-.056.413-.156.121-.205.065-.38-.059-.177-.124-.094-.247-.094-.247s-.303-.166-.534-.237C5.447 4.109 5.21 4 5.21 4v.25s.473.256.473.5c0 .106-.219.458-.473.708-.328.322-.711.412-.711.412V2.25L5.921 2s-.654-.544.829-.923l1.79-.46c.254-.065.351.07.21.302 0 0-.011.05-.224.33-.212.28-.258.33-.473.5-.215.17-.215.045-.474.25-.259.205-.269.392-.474.5-.205.108-.473 0-.473 0v.25zm-4.264 0V2.5s-.268.108-.473 0c-.206-.108-.215-.295-.474-.5-.26-.205-.26-.08-.474-.25-.215-.17-.261-.22-.473-.5C.26.97.25.92.25.92.108.689.206.553.46.619l1.79.459c1.483.38.829.923.829.923l1.421.25v3.62s-.383-.09-.71-.412c-.255-.25-.474-.602-.474-.708 0-.244.473-.5.473-.5V4s-.236.109-.413.457c-.231.071-.534.237-.534.237s.083.123-.093.247c-.176.123-.226.18-.38.059-.156-.121-.164-.277-.057-.413.108-.136.38-.027.53-.186.15-.16.056-.332.237-.651.18-.318.474-.5.474-.5s-.407.167-.804 0c-.398-.167-.38-.5-.38-.5zm1.539-.887c-.01-.07-.15-.125-.088-.142.117-.032.176-.072.234-.177.025-.046-.089-.016-.052-.061.195-.239.236-.423.111-.486-.27-.134-.304.213-.293.07.008-.102.018-.184.03-.225.055-.183.33-.172.347-.208.07-.147.15-.16.304-.134.155.026.225.105.287.235.046.098.033.25.084.396.033.095.08.147.117.242.02.055-.137-.054-.117 0 .053.147.187.14.268.274.033.054-.121-.01-.111.074.007.056.183.279.183.279H3.789s.126-.077.118-.137z" fill="url(#b)" fill-rule="nonzero" transform="translate(3 5)"/><path d="M9.216 9.585l.117.063-.075.113c-.006.017 0 .034.06.076.142.1.144.102.164.105.012.002.032-.006.08-.043.094-.074.103-.146.035-.232-.015-.018-.05-.029-.156-.039l-.06-.006a.671.671 0 0 1-.165-.037zm-.081-.044a.393.393 0 0 1-.06-.052c-.083-.087-.111-.165-.137-.314a.908.908 0 0 0-.119-.36 1.365 1.365 0 0 0-.432-.457l.103-.224a.69.69 0 0 0 .105.031c.194.049.4.051.589-.022l.024-.01a.54.54 0 0 0 .225-.165.352.352 0 0 0 .08-.213v.001-.438l.161.065a.559.559 0 0 0 .29.034.296.296 0 0 0 .088-.029.416.416 0 0 0 .154-.147c.16-.222.175-.24.302-.341a.725.725 0 0 1 .305-.162l.007-.002a.375.375 0 0 0 .162-.086c.205-.163.244-.205.452-.478.147-.195.2-.281.216-.319.083-.135.07-.153-.082-.114l-.339.087-1.451.372c-.312.08-.538.17-.687.266-.222.144-.236.256-.147.38a.354.354 0 0 0 .05.058l.21.175-1.586.279v3.343l.021-.009c.18-.075.347-.185.491-.323.216-.213.436-.549.436-.617l-.001-.012c-.01-.058-.08-.143-.19-.23a1.581 1.581 0 0 0-.218-.147l-.065-.035v-.517l.166.077a.98.98 0 0 1 .347.31c.035.048.068.1.1.156a3.226 3.226 0 0 1 .43.19h0zm0 0l.077.041.004.002a.384.384 0 0 1-.081-.042zM7.382 7.356l.099.017-.1-.123v.106h0zm0 3.343v.17l.144-.122a1.06 1.06 0 0 1-.144-.048zM6.296 9.351l-.024.046.071-.06a1.57 1.57 0 0 0-.047.014zm-.43.19l-.078.041-.004.002a.384.384 0 0 0 .081-.042zm1.16-2.666h.945a.336.336 0 0 1-.06-.139.176.176 0 0 1 .02-.116.376.376 0 0 1-.17-.202c-.025-.067-.004-.124.036-.156a.656.656 0 0 1-.055-.147 1.344 1.344 0 0 1-.034-.19.461.461 0 0 0-.028-.135c-.052-.11-.096-.149-.198-.167-.124-.02-.142-.014-.18.067-.026.054-.053.066-.112.082.02-.005-.103.024-.134.035a.233.233 0 0 0-.065.033c.06 0 .118.016.171.044.205.101.177.332 0 .587a.15.15 0 0 1-.007.136.437.437 0 0 1-.151.171.2.2 0 0 1 .022.097z" stroke-opacity=".08" stroke="#000" stroke-width=".5"/><path d="M0 1.25V0s.236.244.55.244C.866.244 1.185 0 1.185 0s.297.244.593.244.59-.244.59-.244v1.25C2.368 2.5 1.184 3 1.184 3S0 2.5 0 1.25z" fill="url(#a)" transform="translate(6.316 6.5)"/><g transform="translate(6.316 6.5)"><mask id="e" fill="#fff"><use xlink:href="#c"/></mask><path fill="url(#d)" mask="url(#e)" d="M0 0h2.368v1H0z"/></g><g transform="translate(6.316 6.5)"><mask id="h" fill="#fff"><use xlink:href="#f"/></mask><path d="M0 1h.474v2H0V1zm.947 0h.474v2H.947V1zm.948 0h.473v2h-.473V1z" fill="url(#g)" fill-rule="nonzero" mask="url(#h)"/></g></g></svg>