<svg width="15" height="15" xmlns="http://www.w3.org/2000/svg" xmlns:xlink="http://www.w3.org/1999/xlink"><defs><linearGradient x1="50%" y1="0%" x2="50%" y2="100%" id="b"><stop stop-color="#FFF" offset="0%"/><stop stop-color="#F0F0F0" offset="100%"/></linearGradient><path id="a" d="M0 0h15v15H0z"/><linearGradient x1="50%" y1="0%" x2="50%" y2="100%" id="c"><stop stop-color="#27AB53" offset="0%"/><stop stop-color="#219447" offset="100%"/></linearGradient><linearGradient x1="50%" y1="0%" x2="50%" y2="100%" id="e"><stop stop-color="#EC2547" offset="0%"/><stop stop-color="#CE1A39" offset="100%"/></linearGradient><linearGradient x1="50%" y1="0%" x2="50%" y2="100%" id="f"><stop stop-color="#262626" offset="0%"/><stop stop-color="#0D0D0D" offset="100%"/></linearGradient><linearGradient x1="50%" y1="0%" x2="50%" y2="100%" id="g"><stop stop-color="#FFD449" offset="0%"/><stop stop-color="#FDCD34" offset="100%"/></linearGradient></defs><g fill="none" fill-rule="evenodd"><mask id="d" fill="#fff"><use xlink:href="#a"/></mask><use fill="url(#b)" xlink:href="#a"/><path fill="url(#c)" mask="url(#d)" d="M0 9h15v6H0z"/><path fill="url(#e)" mask="url(#d)" d="M0 0h21v6H0z"/><path fill="url(#f)" mask="url(#d)" d="M8 6h13v3H8l-8 6V0z"/><path fill="url(#g)" mask="url(#d)" d="M6.867 7.5L-.6 1.9l-.4-.3.6-.8.4.3L7.867 7H15v1H7.867L0 13.9l-.4.3-.6-.8.4-.3z"/><path d="M2.5 8.5A1.5 1.5 0 1 1 4 7c0 .727-.813 2.363-1.5 2.5-.096.02.101-1 0-1zm0-.75C2.776 8 3 7.276 3 7a.5.5 0 0 0-1 0c0 .276.224 1 .5.75z" fill="url(#g)" fill-rule="nonzero" mask="url(#d)"/></g></svg>