<svg width="15" height="15" xmlns="http://www.w3.org/2000/svg"><defs><linearGradient x1="50%" y1="0%" x2="50%" y2="100%" id="a"><stop stop-color="#FFF" offset="0%"/><stop stop-color="#F0F0F0" offset="100%"/></linearGradient><linearGradient x1="50%" y1="0%" x2="50%" y2="100%" id="b"><stop stop-color="#1AB11F" offset="0%"/><stop stop-color="#149818" offset="100%"/></linearGradient><linearGradient x1="50%" y1="0%" x2="50%" y2="100%" id="c"><stop stop-color="#262626" offset="0%"/><stop stop-color="#0D0D0D" offset="100%"/></linearGradient><linearGradient x1="50%" y1="0%" x2="50%" y2="100%" id="d"><stop stop-color="#DC0D18" offset="0%"/><stop stop-color="#BE0711" offset="100%"/></linearGradient></defs><g fill="none" fill-rule="evenodd"><path fill="url(#a)" d="M0 0h15v15H0z"/><path fill="url(#b)" d="M7 0h8v15H7z"/><path fill="url(#c)" d="M0 0h5v15H0z"/><path fill="url(#d)" d="M5 0h5v15H5z"/><path d="M6 7.2a1.5 1.5 0 0 0 .748 1.298.3.3 0 0 0 .301-.519A.9.9 0 0 1 6.6 7.2a.3.3 0 0 0-.6 0zm2.308 1.264C8.739 8.19 9 7.712 9 7.2a.3.3 0 0 0-.6 0 .9.9 0 0 1-.416.759.3.3 0 1 0 .324.505z" fill="#FFF" fill-rule="nonzero" opacity=".75"/><ellipse fill-opacity=".5" fill="#FFF" cx="7.5" cy="6.9" rx="1" ry="1"/></g></svg>