<svg width="15" height="15" xmlns="http://www.w3.org/2000/svg" xmlns:xlink="http://www.w3.org/1999/xlink"><defs><path id="a" d="M0 0h15v15H0z"/><linearGradient x1="50%" y1="0%" x2="50%" y2="100%" id="b"><stop stop-color="#FFF" offset="0%"/><stop stop-color="#F0F0F0" offset="100%"/></linearGradient><linearGradient x1="50%" y1="0%" x2="50%" y2="100%" id="d"><stop stop-color="#E2243B" offset="0%"/><stop stop-color="#CC162C" offset="100%"/></linearGradient><linearGradient x1="50%" y1="0%" x2="50%" y2="100%" id="e"><stop stop-color="#262626" offset="0%"/><stop stop-color="#0D0D0D" offset="100%"/></linearGradient><path id="f" d="M0 0h21L10.5 15z"/><linearGradient x1="50%" y1="0%" x2="50%" y2="100%" id="g"><stop stop-color="#FFCF3C" offset="0%"/><stop stop-color="#FECB2F" offset="100%"/></linearGradient><path id="i" d="M0 0h21L10.5 15z"/><linearGradient x1="50%" y1="0%" x2="50%" y2="100%" id="j"><stop stop-color="#1984D8" offset="0%"/><stop stop-color="#1175C4" offset="100%"/></linearGradient><path id="l" d="M0 0h21L10.5 15z"/></defs><g fill="none" fill-rule="evenodd"><mask id="c" fill="#fff"><use xlink:href="#a"/></mask><use fill="#D8D8D8" fill-rule="nonzero" xlink:href="#a"/><path fill="url(#b)" mask="url(#c)" d="M-3 0h21v15H-3z"/><path d="M5.5 7a2 2 0 0 0 .998 1.731m2.078-.045C9.132 8.331 9.5 7.708 9.5 7" opacity=".75" mask="url(#c)"/><ellipse fill-opacity=".5" fill="#FFF" mask="url(#c)" cx="7.5" cy="6.5" rx="1" ry="1.5"/><path fill="url(#d)" mask="url(#c)" d="M-3 0h21v15H-3z"/><g mask="url(#c)" fill="url(#e)"><path d="M-3 0h21L7.5 15z"/></g><g mask="url(#c)"><g transform="translate(-3)"><mask id="h" fill="#fff"><use xlink:href="#f"/></mask><path fill="url(#g)" mask="url(#h)" d="M10.5 8.25l-1.722 1.907.131-2.566-2.566.131L8.25 6 6 4l2.909.5-.409-3 2 2.5 2-2.5-.409 3L15 4l-2.25 2 1.907 1.722-2.566-.131.131 2.566z"/></g></g><g mask="url(#c)"><g transform="translate(-3)"><mask id="k" fill="#fff"><use xlink:href="#i"/></mask><path fill="url(#j)" mask="url(#k)" d="M0 6h21v4H0z"/></g></g><g mask="url(#c)"><g transform="translate(-3)"><mask id="m" fill="#fff"><use xlink:href="#l"/></mask><path fill="url(#b)" mask="url(#m)" d="M0 10h21v5H0z"/></g></g></g></svg>