<svg width="15" height="15" xmlns="http://www.w3.org/2000/svg"><defs><linearGradient x1="50%" y1="0%" x2="50%" y2="100%" id="a"><stop stop-color="#FFF" offset="0%"/><stop stop-color="#F0F0F0" offset="100%"/></linearGradient><linearGradient x1="50%" y1="0%" x2="50%" y2="100%" id="b"><stop stop-color="#083D96" offset="0%"/><stop stop-color="#053380" offset="100%"/></linearGradient><linearGradient x1="50%" y1="0%" x2="50%" y2="100%" id="c"><stop stop-color="#37AE39" offset="0%"/><stop stop-color="#2E9630" offset="100%"/></linearGradient><linearGradient x1="50%" y1="0%" x2="50%" y2="100%" id="d"><stop stop-color="#FFD13F" offset="0%"/><stop stop-color="#FFCD2F" offset="100%"/></linearGradient><linearGradient x1="50%" y1="0%" x2="50%" y2="100%" id="e"><stop stop-color="#E42346" offset="0%"/><stop stop-color="#D01739" offset="100%"/></linearGradient><linearGradient x1="50%" y1="0%" x2="50%" y2="100%" id="f"><stop stop-color="#FFD03B" offset="0%"/><stop stop-color="#FFCD2F" offset="100%"/></linearGradient></defs><g fill="none" fill-rule="evenodd"><path fill="url(#a)" d="M0 0h15v15H0z"/><path fill="url(#b)" d="M0 0h15v4H0z"/><path fill="url(#c)" d="M0 7h15v4H0z"/><path fill="url(#d)" d="M0 11h15v4H0z"/><path fill="url(#a)" d="M0 4h15v3H0z"/><path fill="url(#e)" d="M6 0h4v15H6z"/><path fill="url(#f)" d="M3 2.536L2.38 3l.229-.761L2 1.763l.758-.007L3 1l.24.757.76.007-.61.475.228.761z"/></g></svg>