<svg width="15" height="15" xmlns="http://www.w3.org/2000/svg" xmlns:xlink="http://www.w3.org/1999/xlink"><defs><path id="a" d="M0 0h15v15H0z"/><linearGradient x1="50%" y1="0%" x2="50%" y2="100%" id="b"><stop stop-color="#083D7A" offset="0%"/><stop stop-color="#032F61" offset="100%"/></linearGradient><linearGradient x1="50%" y1="0%" x2="50%" y2="100%" id="d"><stop stop-color="#DF1E35" offset="0%"/><stop stop-color="#CC162C" offset="100%"/></linearGradient><linearGradient x1="50%" y1="0%" x2="50%" y2="100%" id="e"><stop stop-color="#FFF" offset="0%"/><stop stop-color="#F0F0F0" offset="100%"/></linearGradient></defs><g fill="none" fill-rule="evenodd"><mask id="c" fill="#fff"><use xlink:href="#a"/></mask><use fill="#D8D8D8" fill-rule="nonzero" xlink:href="#a"/><path d="M-3 0h9v6h-9V0zM9 9h9v6H9V9z" fill="url(#b)" fill-rule="nonzero" mask="url(#c)"/><path d="M-3 9h9v6h-9V9zM9 0h9v6H9V0z" fill="url(#d)" fill-rule="nonzero" mask="url(#c)"/><path fill="url(#e)" mask="url(#c)" d="M6 6h-9v3h9v6h3V9h9V6H9V0H6z"/><path d="M6.44 6.44a1.5 1.5 0 0 0 2.12 2.12 1.5 1.5 0 0 0 0-2.12" fill-opacity=".2" fill="#C93127" mask="url(#c)"/><circle fill="#042F60" mask="url(#c)" cx="7.5" cy="7.5" r="1"/><path d="M8.56 8.56a1.5 1.5 0 0 1-2.12-2.12l.353.353a1 1 0 1 0 1.414 0l.354-.354a1.5 1.5 0 0 1 0 2.122L8.56 8.56zm0 0a1.5 1.5 0 0 1-2.12-2.12l.353.353a1 1 0 1 0 1.414 0l.354-.354a1.5 1.5 0 0 1 0 2.122L8.56 8.56z" fill="#0F6D1A" fill-rule="nonzero" mask="url(#c)"/></g></svg>