<svg width="15" height="15" xmlns="http://www.w3.org/2000/svg"><defs><linearGradient x1="50%" y1="0%" x2="50%" y2="100%" id="a"><stop stop-color="#29C53F" offset="0%"/><stop stop-color="#21AC35" offset="100%"/></linearGradient><linearGradient x1="50%" y1="0%" x2="50%" y2="100%" id="b"><stop stop-color="#579DED" offset="0%"/><stop stop-color="#458BDB" offset="100%"/></linearGradient><linearGradient x1="50%" y1="0%" x2="50%" y2="100%" id="c"><stop stop-color="#F42D56" offset="0%"/><stop stop-color="#E9103D" offset="100%"/></linearGradient></defs><g fill="none" fill-rule="evenodd"><path fill="url(#a)" d="M0 0h15v8H0z"/><path fill="url(#b)" d="M0 7h15v8H0z"/><path fill="url(#c)" d="M0 14l15-7L0 0z"/><g transform="translate(2 5)" fill="#FFC63C"><path d="M2.5 4.286a1.786 1.786 0 1 0 0-3.572 1.786 1.786 0 0 0 0 3.572zM2.5 5a2.5 2.5 0 1 1 0-5 2.5 2.5 0 0 1 0 5z" fill-rule="nonzero"/><circle cx="2.143" cy="1.786" r="1"/><circle cx="2.857" cy="2.143" r="1"/><circle cx="2.5" cy="1.429" r="1"/><circle cx="2.143" cy="2.5" r="1"/><circle cx="2.857" cy="2.857" r="1"/><circle cx="2.143" cy="3.214" r="1"/><circle cx="2.857" cy="3.571" r="1"/></g></g></svg>