<svg width="15" height="15" xmlns="http://www.w3.org/2000/svg" xmlns:xlink="http://www.w3.org/1999/xlink"><defs><linearGradient x1="50%" y1="0%" x2="50%" y2="100%" id="b"><stop stop-color="#FFF" offset="0%"/><stop stop-color="#F0F0F0" offset="100%"/></linearGradient><path id="a" d="M0 0h15v15H0z"/><linearGradient x1="50%" y1="0%" x2="50%" y2="100%" id="c"><stop stop-color="#07319C" offset="0%"/><stop stop-color="#00247E" offset="100%"/></linearGradient><linearGradient x1="50%" y1="0%" x2="50%" y2="100%" id="e"><stop stop-color="#1F8BDE" offset="0%"/><stop stop-color="#1075C2" offset="100%"/></linearGradient><path d="M0 2.5V.364C0 .163.172 0 .398 0h3.204C3.822 0 4 .162 4 .364V2.5C4 4.286 2 5 2 5s-2-.714-2-2.5z" id="f"/><path d="M0 2.5V.364C0 .163.172 0 .398 0h3.204C3.822 0 4 .162 4 .364V2.5C4 4.286 2 5 2 5s-2-.714-2-2.5z" id="h"/><linearGradient x1="50%" y1="0%" x2="50%" y2="100%" id="i"><stop stop-color="#187536" offset="0%"/><stop stop-color="#0E5023" offset="100%"/></linearGradient><path d="M0 2.5V.364C0 .163.172 0 .398 0h3.204C3.822 0 4 .162 4 .364V2.5C4 4.286 2 5 2 5s-2-.714-2-2.5z" id="k"/><path d="M0 2.5V.364C0 .163.172 0 .398 0h3.204C3.822 0 4 .162 4 .364V2.5C4 4.286 2 5 2 5s-2-.714-2-2.5z" id="m"/><linearGradient x1="50%" y1="0%" x2="50%" y2="100%" id="o"><stop stop-color="#DB1E36" offset="0%"/><stop stop-color="#D51931" offset="100%"/></linearGradient></defs><g fill="none" fill-rule="evenodd"><mask id="d" fill="#fff"><use xlink:href="#a"/></mask><use fill="url(#b)" xlink:href="#a"/><path fill="url(#c)" mask="url(#d)" d="M0 0h21v15H0z"/><g mask="url(#d)"><path d="M0 2.5V.364C0 .163.172 0 .398 0h3.204C3.822 0 4 .162 4 .364V2.5C4 4.286 2 5 2 5s-2-.714-2-2.5z" fill="url(#e)" transform="translate(9 9)"/><g transform="translate(9 9)"><mask id="g" fill="#fff"><use xlink:href="#f"/></mask><path d="M0 2.5V.364C0 .163.172 0 .398 0h3.204C3.822 0 4 .162 4 .364V2.5C4 4.286 2 5 2 5s-2-.714-2-2.5zm2.115 2.05c.21-.107.422-.239.618-.396.546-.44.867-.983.867-1.654V.364C3.6.357.4.357.4.357V2.5c0 .67.32 1.215.867 1.654.222.178.468.33.733.452l.115-.056z" fill="url(#b)" fill-rule="nonzero" mask="url(#g)"/></g><g transform="translate(9 9)"><mask id="j" fill="#fff"><use xlink:href="#h"/></mask><path d="M.926 2.482c-.07-.188.047-.34.27-.34h1.608c.218 0 .34.15.27.34l-.148.393c-.07.188-.236.219-.419.095 0 0 .07-.113-.507-.113-.578 0-.507.113-.507.113-.162.135-.349.095-.42-.095l-.147-.393z" fill="url(#i)" mask="url(#j)"/></g><g transform="translate(9 9)"><mask id="l" fill="#fff"><use xlink:href="#k"/></mask><path d="M1.2 2.143c.216.038.472-.357.8-.357.35 0 .58.405.8.357.197-.043.4-.528.4-.714 0-.395-.538-.715-1.2-.715-.662 0-1.2.32-1.2.715 0 .2.178.675.4.714z" fill="url(#b)" mask="url(#l)"/></g><g transform="translate(9 9)"><mask id="n" fill="#fff"><use xlink:href="#m"/></mask><path d="M-.258 4.412l.28-.25.24-.214A.208.208 0 0 1 .4 3.896c.052 0 .102.019.138.052l.24.214c.233.208.61.208.844 0l.24-.214A.208.208 0 0 1 2 3.896c.052 0 .102.019.138.052l.24.214c.233.208.61.208.844 0l.24-.214a.208.208 0 0 1 .138-.052c.052 0 .102.019.138.052l.24.214.142.127.283-.253-.141-.127-.24-.214a.633.633 0 0 0-.422-.156.633.633 0 0 0-.422.156l-.24.214a.208.208 0 0 1-.138.052.208.208 0 0 1-.138-.052l-.24-.214A.633.633 0 0 0 2 3.539a.633.633 0 0 0-.422.156l-.24.214a.208.208 0 0 1-.138.052.208.208 0 0 1-.138-.052l-.24-.214A.633.633 0 0 0 .4 3.539a.633.633 0 0 0-.422.156l-.24.214-.28.25-.141.127.283.253.142-.127zm0-1.071l.28-.25.24-.215A.208.208 0 0 1 .4 2.825a.21.21 0 0 1 .138.051l.24.215c.233.207.61.207.844 0l.24-.215A.208.208 0 0 1 2 2.825a.21.21 0 0 1 .138.051l.24.215c.233.207.61.207.844 0l.24-.215a.208.208 0 0 1 .138-.051.21.21 0 0 1 .138.051l.24.215.142.126.283-.253-.141-.126-.24-.214a.633.633 0 0 0-.422-.157.633.633 0 0 0-.422.157l-.24.214a.208.208 0 0 1-.138.051.208.208 0 0 1-.138-.051l-.24-.214A.633.633 0 0 0 2 2.467a.633.633 0 0 0-.422.157l-.24.214a.208.208 0 0 1-.138.051.208.208 0 0 1-.138-.051l-.24-.214A.633.633 0 0 0 .4 2.467a.633.633 0 0 0-.422.157l-.24.214-.28.25-.141.126.283.253.142-.126zm0 2.143l.28-.25.24-.215A.208.208 0 0 1 .4 4.968c.052 0 .102.018.138.051l.24.215c.233.207.61.207.844 0l.24-.215A.208.208 0 0 1 2 4.968c.052 0 .102.018.138.051l.24.215c.233.207.61.207.844 0l.24-.215a.208.208 0 0 1 .138-.051c.052 0 .102.018.138.051l.24.215.142.126.283-.253-.141-.126-.24-.215A.633.633 0 0 0 3.6 4.61a.633.633 0 0 0-.422.156l-.24.215a.208.208 0 0 1-.138.051.208.208 0 0 1-.138-.051l-.24-.215A.633.633 0 0 0 2 4.61a.633.633 0 0 0-.422.156l-.24.215a.208.208 0 0 1-.138.051.208.208 0 0 1-.138-.051l-.24-.215A.633.633 0 0 0 .4 4.61a.633.633 0 0 0-.422.156l-.24.215-.28.25-.141.126.283.253.142-.126z" fill="url(#b)" fill-rule="nonzero" mask="url(#n)"/></g></g><g mask="url(#d)" fill="url(#o)"><path d="M3.5 3L0 0h.5L4 2.5h1L9 0v.25a.537.537 0 0 1-.208.399L5.5 3v1l3.312 2.839c.104.089.072.161-.062.161a.898.898 0 0 1-.458-.149L5 4.5H4L0 7v-.5L3.5 4V3z"/></g><path d="M3.25 3.115L-.676-.25H.5l.145.047L4.08 2.25h.848L9.25-.451V.25c0 .222-.128.47-.313.602L5.75 3.13v.756L8.975 6.65c.282.242.138.601-.225.601-.193 0-.442-.08-.604-.195L4.92 4.75h-.848L-.25 7.451v-1.08l3.5-2.5v-.756z" stroke="#FFF" stroke-width=".5" mask="url(#d)"/><path d="M0 2.5v2h3.5v2.505c0 .273.214.495.505.495h.99a.496.496 0 0 0 .505-.495V4.5h3.51a.49.49 0 0 0 .49-.505v-.99a.495.495 0 0 0-.49-.505H5.5V0h-2v2.5H0z" fill="url(#b)" mask="url(#d)"/><path fill="url(#o)" mask="url(#d)" d="M0 3h4V0h1v3h4v1H5v3H4V4H0z"/></g></svg>