<svg width="15" height="15" xmlns="http://www.w3.org/2000/svg" xmlns:xlink="http://www.w3.org/1999/xlink"><defs><linearGradient x1="50%" y1="0%" x2="50%" y2="100%" id="a"><stop stop-color="#DE3149" offset="0%"/><stop stop-color="#C2273D" offset="100%"/></linearGradient><linearGradient x1="50%" y1="0%" x2="50%" y2="100%" id="b"><stop stop-color="#053B94" offset="0%"/><stop stop-color="#002E7A" offset="100%"/></linearGradient><linearGradient x1="50%" y1="0%" x2="50%" y2="100%" id="c"><stop stop-color="#FFF" offset="0%"/><stop stop-color="#F0F0F0" offset="100%"/></linearGradient><path d="M2.5 8.5s2.5-2 2.5-4-2.5-4-2.5-4-2.5 2-2.5 4 2.5 4 2.5 4z" id="d"/><linearGradient x1="50%" y1="0%" x2="50%" y2="100%" id="e"><stop stop-color="#81C1F3" offset="0%"/><stop stop-color="#6AB1E9" offset="100%"/></linearGradient><path d="M2.5 8.5s2.5-2 2.5-4-2.5-4-2.5-4-2.5 2-2.5 4 2.5 4 2.5 4z" id="g"/><linearGradient x1="50%" y1="0%" x2="50%" y2="100%" id="h"><stop stop-color="#27A07E" offset="0%"/><stop stop-color="#1F9171" offset="100%"/></linearGradient><path d="M2.5 8.5s2.5-2 2.5-4-2.5-4-2.5-4-2.5 2-2.5 4 2.5 4 2.5 4z" id="j"/><linearGradient x1="50%" y1="0%" x2="50%" y2="100%" id="k"><stop stop-color="#1E8CE8" offset="0%"/><stop stop-color="#107FDC" offset="100%"/></linearGradient><path d="M2.5 8.5s2.5-2 2.5-4-2.5-4-2.5-4-2.5 2-2.5 4 2.5 4 2.5 4z" id="m"/><linearGradient x1="50%" y1="0%" x2="50%" y2="100%" id="n"><stop stop-color="#FFF048" offset="0%"/><stop stop-color="#FFEF36" offset="100%"/></linearGradient><linearGradient x1="50%" y1="0%" x2="50%" y2="100%" id="p"><stop stop-color="#8F5715" offset="0%"/><stop stop-color="#7A480D" offset="100%"/></linearGradient></defs><g fill="none" fill-rule="evenodd"><path fill="url(#a)" d="M0 0h15v15H0z"/><rect fill="url(#b)" x="1" y="1" width="13" height="13" rx=".75"/><path d="M3.5 9s3-2.015 3-4.5-3-4.5-3-4.5-3 2.015-3 4.5 3 4.5 3 4.5z" fill="url(#a)" transform="translate(4 3)"/><path d="M2.5 8.5s2.5-2 2.5-4-2.5-4-2.5-4-2.5 2-2.5 4 2.5 4 2.5 4z" fill="url(#c)" transform="translate(5 3)"/><g transform="translate(5 3)"><mask id="f" fill="#fff"><use xlink:href="#d"/></mask><path fill="url(#e)" mask="url(#f)" d="M0 0h5v5H0z"/></g><g transform="translate(5 3)"><mask id="i" fill="#fff"><use xlink:href="#g"/></mask><path fill="url(#h)" mask="url(#i)" d="M2.5 4.1l-.882.614.311-1.029-.856-.649 1.074-.021L2.5 2l.353 1.015 1.074.021-.856.65.31 1.028z"/></g><g transform="translate(5 3)"><mask id="l" fill="#fff"><use xlink:href="#j"/></mask><path fill="url(#k)" mask="url(#l)" d="M0 5h5v4H0z"/></g><g transform="translate(5 3)"><mask id="o" fill="#fff"><use xlink:href="#m"/></mask><path d="M0 6s1.59 1.5 2 1.5c.488 0 .496-.723 1-1 .794-.436 2-.5 2-.5v3H0V6z" fill="url(#n)" mask="url(#o)"/></g><path d="M3.251 3.475c-.035.36-.058.722-.067 1.084-.01.467.01.812.079 1.02.087.261.284.506.557.742.208.18.415.316.557.397a.25.25 0 1 0 .246-.436 3.148 3.148 0 0 1-.477-.34c-.21-.182-.356-.363-.409-.521-.044-.134-.063-.442-.053-.85.009-.35.03-.698.065-1.046a.25.25 0 1 0-.498-.05z" fill="url(#p)" transform="translate(4 3)"/><path fill="#FFF" d="M6 7.5L7 9H6z"/></g></svg>