<svg width="15" height="15" xmlns="http://www.w3.org/2000/svg" xmlns:xlink="http://www.w3.org/1999/xlink"><defs><linearGradient x1="50%" y1="0%" x2="50%" y2="100%" id="b"><stop stop-color="#FFF" offset="0%"/><stop stop-color="#F0F0F0" offset="100%"/></linearGradient><path id="a" d="M0 0h15v15H0z"/><linearGradient x1="50%" y1="0%" x2="50%" y2="100%" id="c"><stop stop-color="#07319C" offset="0%"/><stop stop-color="#00247E" offset="100%"/></linearGradient><linearGradient x1="50%" y1="0%" x2="50%" y2="100%" id="e"><stop stop-color="#DB1E36" offset="0%"/><stop stop-color="#D51931" offset="100%"/></linearGradient></defs><g fill="none" fill-rule="evenodd"><mask id="d" fill="#fff"><use xlink:href="#a"/></mask><use fill="url(#b)" xlink:href="#a"/><path fill="url(#c)" mask="url(#d)" d="M.004-.002h15v15h-15z"/><path d="M3 3.23L-1.352-.5H.66L4.16 2h.697L9.5-.902V.25c0 .303-.167.627-.418.806L6 3.257v.513l3.137 2.69c.462.395.204 1.04-.387 1.04-.245 0-.545-.096-.75-.242L4.84 5h-.697L-.5 7.902v-1.66l3.5-2.5V3.23z" fill="url(#b)" mask="url(#d)"/><path d="M3.5 3L0 0h.5L4 2.5h1L9 0v.25a.537.537 0 0 1-.208.399L5.5 3v1l3.312 2.839c.104.089.072.161-.062.161a.898.898 0 0 1-.458-.149L5 4.5H4L0 7v-.5L3.5 4V3z" fill="url(#e)" mask="url(#d)"/><path d="M0 2.5v2h3.5v2.505c0 .273.214.495.505.495h.99a.496.496 0 0 0 .505-.495V4.5h3.51a.49.49 0 0 0 .49-.505v-.99a.495.495 0 0 0-.49-.505H5.5V0h-2v2.5H0z" fill="url(#b)" mask="url(#d)"/><path fill="url(#e)" mask="url(#d)" d="M0 3h4V0h1v3h4v1H5v3H4V4H0z"/><path d="M.423 6.998l-1.109.37-.474.157.316.949.475-.158 2.062-.688c.153-.05.467-.051.621 0l2.063.688c.357.119.894.12 1.254 0l2.062-.688c.153-.05.467-.051.621 0l2.063.688c.357.119.894.12 1.254 0l2.062-.688c.153-.05.467-.051.621 0l2.063.688c.357.119.894.12 1.254 0l2.062-.688c.153-.05.467-.051.621 0l2.063.688.469.156.474.158.316-.948-.474-.159-.469-.156-2.062-.687c-.36-.12-.897-.12-1.254 0l-2.063.687a1.275 1.275 0 0 1-.62 0L14.63 6.68c-.36-.12-.897-.12-1.254 0l-2.063.687a1.275 1.275 0 0 1-.62 0l-1.69-.563v.194h-2.58l-1.109.37a1.3 1.3 0 0 1-.62 0l-1.11-.37H.423zm8.58-1.64l1.374.458c.357.119.894.12 1.254 0l2.062-.688c.153-.05.467-.051.621 0l2.063.688c.357.119.894.12 1.254 0l2.062-.688c.153-.05.467-.051.621 0l2.063.688.469.156.474.158.316-.948-.474-.159-.469-.156-2.062-.687c-.36-.12-.897-.12-1.254 0l-2.063.687a1.275 1.275 0 0 1-.62 0L14.63 4.18c-.36-.12-.897-.12-1.254 0l-2.063.687a1.275 1.275 0 0 1-.62 0l-1.69-.563v1.054zm-9 .333l-.372.125-.475.158-.316-.949.474-.158.69-.23v1.054H.003zm9-2.833l1.374.458c.357.119.894.12 1.254 0l2.062-.688c.153-.05.467-.051.621 0l2.063.688c.357.119.894.12 1.254 0l2.062-.688c.153-.05.467-.051.621 0l2.063.688.469.156.474.158.316-.948-.474-.159-.469-.156-2.062-.687c-.36-.12-.897-.12-1.254 0l-2.063.687a1.275 1.275 0 0 1-.62 0L14.63 1.68c-.36-.12-.897-.12-1.254 0l-2.063.687a1.275 1.275 0 0 1-.62 0l-1.69-.563v1.054zm-9 .333l-.372.125-.475.158-.316-.949.474-.158.69-.23v1.054H.003zm9-2.833l1.374.458c.357.119.894.12 1.254 0l2.062-.688c.153-.05.467-.051.621 0l2.063.688c.357.119.894.12 1.254 0l2.062-.688c.153-.05.467-.051.621 0l2.063.688.469.156.474.158.316-.948-.474-.159-.469-.156-2.062-.687c-.36-.12-.897-.12-1.254 0l-2.063.687a1.275 1.275 0 0 1-.62 0L14.63-.82c-.36-.12-.897-.12-1.254 0l-2.063.687a1.275 1.275 0 0 1-.62 0L8.63-.82c-.36-.12-.897-.12-1.254 0l-2.063.687a1.275 1.275 0 0 1-.62 0L2.63-.82c-.36-.12-.897-.12-1.254 0l-2.063.687-.474.158.316.949.475-.158L.004.69v-.693h9v.36l-.001.001zm14.159 14.665l.474.159-.316.948-.474-.158-.47-.156-2.062-.688a1.278 1.278 0 0 0-.62 0l-2.063.688c-.36.12-.897.119-1.254 0l-2.063-.688a1.278 1.278 0 0 0-.62 0l-2.063.688c-.36.12-.897.119-1.254 0l-2.063-.688a1.278 1.278 0 0 0-.62 0l-2.063.688c-.36.12-.897.119-1.254 0l-2.063-.688a1.278 1.278 0 0 0-.62 0l-2.063.688-.475.158-.316-.949.474-.158 2.063-.687c.357-.12.894-.12 1.254 0l2.062.687c.153.051.467.051.621 0l2.063-.687c.357-.12.894-.12 1.254 0l2.062.687c.153.051.467.051.621 0l2.063-.687c.357-.12.894-.12 1.254 0l2.062.687c.153.051.467.051.621 0l2.063-.687c.357-.12.894-.12 1.254 0l2.062.687.469.156zm0-2.5l.474.159-.316.948-.474-.158-.47-.156-2.062-.688a1.278 1.278 0 0 0-.62 0l-2.063.688c-.36.12-.897.119-1.254 0l-2.063-.688a1.278 1.278 0 0 0-.62 0l-2.063.688c-.36.12-.897.119-1.254 0l-2.063-.688a1.278 1.278 0 0 0-.62 0l-2.063.688c-.36.12-.897.119-1.254 0l-2.063-.688a1.278 1.278 0 0 0-.62 0l-2.063.688-.475.158-.316-.949.474-.158 2.063-.687c.357-.12.894-.12 1.254 0l2.062.687c.153.051.467.051.621 0l2.063-.687c.357-.12.894-.12 1.254 0l2.062.687c.153.051.467.051.621 0l2.063-.687c.357-.12.894-.12 1.254 0l2.062.687c.153.051.467.051.621 0l2.063-.687c.357-.12.894-.12 1.254 0l2.062.687.469.156zm0-2.5l.474.159-.316.948-.474-.158-.47-.156-2.062-.688a1.278 1.278 0 0 0-.62 0l-2.063.688c-.36.12-.897.119-1.254 0l-2.063-.688a1.278 1.278 0 0 0-.62 0l-2.063.688c-.36.12-.897.119-1.254 0l-2.063-.688a1.278 1.278 0 0 0-.62 0l-2.063.688c-.36.12-.897.119-1.254 0l-2.063-.688a1.278 1.278 0 0 0-.62 0l-2.063.688-.475.158-.316-.949.474-.158 2.063-.687c.357-.12.894-.12 1.254 0l2.062.687c.153.051.467.051.621 0l2.063-.687c.357-.12.894-.12 1.254 0l2.062.687c.153.051.467.051.621 0l2.063-.687c.357-.12.894-.12 1.254 0l2.062.687c.153.051.467.051.621 0l2.063-.687c.357-.12.894-.12 1.254 0l2.062.687.469.156z" fill="#FFF" fill-rule="nonzero" mask="url(#d)"/></g></svg>