<svg width="15" height="15" xmlns="http://www.w3.org/2000/svg"><defs><linearGradient x1="50%" y1="0%" x2="50%" y2="100%" id="a"><stop stop-color="#1E8BD6" offset="0%"/><stop stop-color="#1074BA" offset="100%"/></linearGradient><linearGradient x1="50%" y1="0%" x2="50%" y2="100%" id="b"><stop stop-color="#FFF" offset="0%"/><stop stop-color="#F0F0F0" offset="100%"/></linearGradient><linearGradient x1="50%" y1="0%" x2="50%" y2="100%" id="c"><stop stop-color="#A9A7A9" offset="0%"/><stop stop-color="#8C8A8C" offset="100%"/></linearGradient></defs><g fill="none" fill-rule="evenodd"><path fill="url(#a)" d="M0 0h15v15H0z"/><path d="M5.5 10.5a5 5 0 1 0 0-10 5 5 0 0 0 0 10zm0-1a4 4 0 1 1 0-8 4 4 0 0 1 0 8z" fill="url(#b)" fill-rule="nonzero" transform="translate(2 2)"/><path d="M3.938 3.997C3.972 3.447 4.443 3 4.999 3h1.002c.552 0 1.027.453 1.061.997l.376 6.006a.927.927 0 0 1-.947.997H4.509a.935.935 0 0 1-.947-.997l.376-6.006z" fill="url(#c)" transform="translate(2 2)"/><path fill="url(#b)" d="M5.5 7.515L3.443 8.982l.759-2.41-2.03-1.504 2.526-.022L5.5 2.65l.802 2.396 2.527.022-2.03 1.504.758 2.41z" transform="translate(2 2)"/></g></svg>