<svg width="15" height="15" xmlns="http://www.w3.org/2000/svg"><defs><linearGradient x1="50%" y1="0%" x2="50%" y2="100%" id="a"><stop stop-color="#138E16" offset="0%"/><stop stop-color="#0F7F12" offset="100%"/></linearGradient><linearGradient x1="50%" y1="0%" x2="50%" y2="100%" id="b"><stop stop-color="#ED2B35" offset="0%"/><stop stop-color="#D91B25" offset="100%"/></linearGradient><linearGradient x1="50%" y1="0%" x2="50%" y2="100%" id="c"><stop stop-color="#FFF" offset="0%"/><stop stop-color="#F0F0F0" offset="100%"/></linearGradient></defs><g fill="none" fill-rule="evenodd"><path fill="url(#a)" d="M0 10h15v5H0z"/><path fill="url(#b)" d="M0 15h5v-5h10V5H5V0H0z"/><path fill="url(#c)" fill-rule="nonzero" d="M5 0h10v5H5zM2.5 3l-.668 1 .346-1.16L1 2.93l1.1-.446-.803-.89 1.025.605L2.5 1l.178 1.199 1.025-.605-.803.89L4 2.93l-1.18-.088L3.168 4z"/></g></svg>