<svg width="15" height="15" xmlns="http://www.w3.org/2000/svg"><defs><linearGradient x1="50%" y1="0%" x2="50%" y2="100%" id="a"><stop stop-color="#FF2936" offset="0%"/><stop stop-color="#FD0D1B" offset="100%"/></linearGradient><linearGradient x1="50%" y1="0%" x2="50%" y2="100%" id="b"><stop stop-color="#128415" offset="0%"/><stop stop-color="#0A650C" offset="100%"/></linearGradient><linearGradient x1="50%" y1="0%" x2="50%" y2="100%" id="c"><stop stop-color="#FAF94F" offset="0%"/><stop stop-color="#F8F736" offset="100%"/></linearGradient><linearGradient x1="50%" y1="0%" x2="50%" y2="100%" id="d"><stop stop-color="#FFF" offset="0%"/><stop stop-color="#F0F0F0" offset="100%"/></linearGradient><linearGradient x1="50%" y1="0%" x2="50%" y2="100%" id="e"><stop stop-color="#1D50B5" offset="0%"/><stop stop-color="#15439D" offset="100%"/></linearGradient></defs><g fill="none" fill-rule="evenodd"><path fill="url(#a)" d="M0 0h15v15H0z"/><path fill="url(#b)" d="M0 0h6v15H0z"/><path d="M3 5.5a2 2 0 1 0 0-4 2 2 0 0 0 0 4zm0 1a3 3 0 1 1 0-6 3 3 0 0 1 0 6z" fill="url(#c)" fill-rule="nonzero" transform="translate(3 4)"/><path d="M2 2.256A.25.25 0 0 1 2.245 2h1.51A.25.25 0 0 1 4 2.256V4a.997.997 0 0 1-1 1c-.552 0-1-.443-1-.999V2.256z" fill="url(#d)" transform="translate(3 4)"/><path d="M3 4c.276 0 .5-.724.5-1a.5.5 0 0 0-1 0c0 .276.224 1 .5 1z" fill="url(#e)" transform="translate(3 4)"/></g></svg>