<svg width="15" height="15" xmlns="http://www.w3.org/2000/svg"><defs><linearGradient x1="50%" y1="0%" x2="50%" y2="100%" id="a"><stop stop-color="#128C4B" offset="0%"/><stop stop-color="#0B6C38" offset="100%"/></linearGradient><linearGradient x1="50%" y1="0%" x2="50%" y2="100%" id="b"><stop stop-color="#FFF" offset="0%"/><stop stop-color="#F0F0F0" offset="100%"/></linearGradient></defs><g fill="none" fill-rule="evenodd"><path fill="url(#a)" d="M0 0h15v15H0z"/><path d="M4 8.571h5.818v-.708c0-.2.14-.294.33-.2l.397.194v.714h1.088c.203 0 .367.153.367.361v.354a.719.719 0 0 1-.727.714h-1.095a.363.363 0 0 1-.36-.357v-.357H5.093c-.202 0-.48-.112-.62-.25L4 8.57zM4 6.61c0-.1.057-.236.13-.31l.103-.098a.18.18 0 0 0 0-.259l-.102-.098A.488.488 0 0 1 4 5.534V5.18c0-.1.078-.18.183-.18h.361a.18.18 0 0 1 .183.18v.354c0 .1.034.115.085.015l.195-.383A.334.334 0 0 1 5.27 5H6c.1 0 .18.083.18.179a.178.178 0 0 1-.18.178h-.361c-.1 0-.182.08-.183.179 0 .098.077.178.183.178h.36c.102 0 .184.077.184.175v1.079c0 .047-.02.092-.054.125a.18.18 0 0 1-.13.05h-.36a.183.183 0 0 1-.13-.052.176.176 0 0 1-.053-.128v-.354c0-.1.084-.18.181-.18.1 0 .182-.083.182-.179a.175.175 0 0 0-.053-.127.181.181 0 0 0-.13-.052h-.36a.186.186 0 0 0-.184.178v.717a.181.181 0 0 1-.182.177.181.181 0 0 1-.13-.052.175.175 0 0 1-.052-.128v-.354a.183.183 0 0 0-.311-.128.175.175 0 0 0-.052.128v.354a.183.183 0 0 1-.312.128A.175.175 0 0 1 4 6.963v-.354zm5.818 0c0-.1.057-.236.131-.31l.102-.098a.18.18 0 0 0 0-.259l-.102-.098a.488.488 0 0 1-.13-.31V5.18c0-.1.077-.18.182-.18h.361a.18.18 0 0 1 .183.18v.354c0 .1.034.115.085.015l.195-.383A.334.334 0 0 1 11.089 5h.73c.1 0 .181.083.181.179a.178.178 0 0 1-.183.178h-.361c-.1 0-.182.08-.183.179 0 .098.078.178.183.178h.36c.102 0 .184.077.184.175v1.079c0 .047-.02.092-.054.125a.18.18 0 0 1-.13.05h-.36a.183.183 0 0 1-.13-.052.176.176 0 0 1-.053-.128v-.354c0-.1.084-.18.182-.18.1 0 .181-.083.181-.179a.175.175 0 0 0-.053-.127.181.181 0 0 0-.13-.052h-.36a.186.186 0 0 0-.184.178v.717a.181.181 0 0 1-.182.177.181.181 0 0 1-.13-.052.175.175 0 0 1-.052-.128v-.354a.183.183 0 0 0-.311-.128.175.175 0 0 0-.052.128v.354a.183.183 0 0 1-.312.128.175.175 0 0 1-.052-.128v-.354zm-.727-1.075c0 .1-.057.236-.131.31l-.102.098a.18.18 0 0 0 0 .259l.102.098c.073.072.13.206.13.31v.354a.176.176 0 0 1-.052.128.182.182 0 0 1-.13.052h-.361a.183.183 0 0 1-.13-.052.176.176 0 0 1-.053-.128V6.61c0-.1-.034-.115-.085-.015l-.195.383a.334.334 0 0 1-.264.166h-.73a.178.178 0 1 1 .003-.357h.36c.1-.001.182-.08.183-.179a.175.175 0 0 0-.053-.127.181.181 0 0 0-.13-.051h-.36a.181.181 0 0 1-.13-.05.175.175 0 0 1-.054-.125v-1.08c0-.096.078-.175.183-.175h.361a.18.18 0 0 1 .183.18v.354a.183.183 0 0 1-.181.18.182.182 0 0 0-.182.179c0 .098.078.178.183.178h.36c.1 0 .181-.079.184-.177v-.717C8 5.08 8.084 5 8.182 5c.1 0 .182.076.182.18v.354c0 .1.084.18.181.18.1 0 .182-.076.182-.18V5.18c0-.1.085-.18.182-.18.1 0 .182.076.182.18v.354z" fill="url(#b)" fill-rule="nonzero"/></g></svg>