<svg width="15" height="15" xmlns="http://www.w3.org/2000/svg"><defs><linearGradient x1="50%" y1="0%" x2="50%" y2="100%" id="a"><stop stop-color="#262626" offset="0%"/><stop stop-color="#0D0D0D" offset="100%"/></linearGradient><linearGradient x1="50%" y1="0%" x2="50%" y2="100%" id="b"><stop stop-color="#E32139" offset="0%"/><stop stop-color="#CC162C" offset="100%"/></linearGradient><linearGradient x1="50%" y1="0%" x2="50%" y2="100%" id="c"><stop stop-color="#FFF" offset="0%"/><stop stop-color="#F0F0F0" offset="100%"/></linearGradient><linearGradient x1="50%" y1="0%" x2="50%" y2="100%" id="d"><stop stop-color="#128A49" offset="0%"/><stop stop-color="#0F7A40" offset="100%"/></linearGradient></defs><g fill="none" fill-rule="evenodd"><path fill="url(#a)" d="M0 10h15v5H0z"/><path fill="url(#b)" d="M0 0h15v5H0z"/><path fill="url(#c)" d="M0 5h15v5H0z"/><path d="M3.902 8.32l-1.176.798.396-1.365L2 6.882l1.42-.045.482-1.337.482 1.337 1.42.045-1.122.871.396 1.365-1.176-.798zm7 0l-1.176.798.396-1.365L9 6.882l1.42-.045.482-1.337.482 1.337 1.42.045-1.122.871.396 1.365-1.176-.798z" fill="url(#d)" fill-rule="nonzero"/></g></svg>