<svg width="15" height="15" xmlns="http://www.w3.org/2000/svg" xmlns:xlink="http://www.w3.org/1999/xlink"><defs><linearGradient x1="50%" y1="0%" x2="50%" y2="100%" id="a"><stop stop-color="#486BCA" offset="0%"/><stop stop-color="#3E5FBA" offset="100%"/></linearGradient><linearGradient x1="50%" y1="0%" x2="50%" y2="100%" id="b"><stop stop-color="#FFDF20" offset="0%"/><stop stop-color="#FFDA00" offset="100%"/></linearGradient><linearGradient x1="50%" y1="0%" x2="50%" y2="100%" id="c"><stop stop-color="#CF1615" offset="0%"/><stop stop-color="#B20D0C" offset="100%"/></linearGradient><linearGradient x1="50%" y1="0%" x2="50%" y2="100%" id="d"><stop stop-color="#FFF" offset="0%"/><stop stop-color="#F0F0F0" offset="100%"/></linearGradient><ellipse id="e" cx="4.5" cy="2.5" rx="4.5" ry="2.5"/><linearGradient x1="50%" y1="0%" x2="50%" y2="100%" id="f"><stop stop-color="#262626" offset="0%"/><stop stop-color="#0D0D0D" offset="100%"/></linearGradient><ellipse id="h" cx="4.5" cy="2.5" rx="4.5" ry="2.5"/><ellipse id="j" cx="4.5" cy="2.5" rx="4.5" ry="2.5"/></defs><g fill="none" fill-rule="evenodd"><path d="M0 0h15v3H0V0zm0 12h15v3H0v-3z" fill="url(#a)" fill-rule="nonzero"/><path fill="url(#b)" d="M0 3h15v9H0z"/><path fill="url(#c)" d="M0 4h15v7H0z"/><ellipse cx="4.5" cy="2.5" rx="4.5" ry="2.5" fill="url(#d)" transform="translate(3 5)"/><g transform="translate(3 5)"><mask id="g" fill="#fff"><use xlink:href="#e"/></mask><path fill="url(#f)" mask="url(#g)" transform="matrix(-1 0 0 1 5 0)" d="M0 0h5v5H1z"/></g><g transform="translate(3 5)"><mask id="i" fill="#fff"><use xlink:href="#h"/></mask><circle fill="#1A1A1A" mask="url(#i)" cx="5.5" cy="2.5" r="1"/></g><g transform="translate(3 5)"><mask id="k" fill="#fff"><use xlink:href="#j"/></mask><circle fill="#F6F6F6" mask="url(#k)" cx="3.5" cy="2.5" r="1"/></g></g></svg>