<svg width="15" height="15" xmlns="http://www.w3.org/2000/svg" xmlns:xlink="http://www.w3.org/1999/xlink"><defs><linearGradient x1="50%" y1="0%" x2="50%" y2="100%" id="b"><stop stop-color="#07319C" offset="0%"/><stop stop-color="#00247E" offset="100%"/></linearGradient><path id="a" d="M0 0h15v15H0z"/><linearGradient x1="50%" y1="0%" x2="50%" y2="100%" id="d"><stop stop-color="#A7D2FF" offset="0%"/><stop stop-color="#91C6FD" offset="100%"/></linearGradient><path d="M0 2.917V.425C0 .19.172 0 .398 0h3.204C3.822 0 4 .19 4 .425v2.492C4 4.583 2 5 2 5s-2-.417-2-2.083z" id="e"/><linearGradient x1="50%" y1="0%" x2="50%" y2="100%" id="f"><stop stop-color="#EE7B2D" offset="0%"/><stop stop-color="#CC621A" offset="100%"/></linearGradient><path d="M0 2.917V.425C0 .19.172 0 .398 0h3.204C3.822 0 4 .19 4 .425v2.492C4 4.583 2 5 2 5s-2-.417-2-2.083z" id="h"/><path d="M0 2.917V.425C0 .19.172 0 .398 0h3.204C3.822 0 4 .19 4 .425v2.492C4 4.583 2 5 2 5s-2-.417-2-2.083z" id="j"/><path d="M0 2.917V.425C0 .19.172 0 .398 0h3.204C3.822 0 4 .19 4 .425v2.492C4 4.583 2 5 2 5s-2-.417-2-2.083z" id="l"/><linearGradient x1="50%" y1="0%" x2="50%" y2="100%" id="m"><stop stop-color="#FFFC4B" offset="0%"/><stop stop-color="#FFFC38" offset="100%"/></linearGradient><linearGradient x1="50%" y1="0%" x2="50%" y2="100%" id="o"><stop stop-color="#FFF" offset="0%"/><stop stop-color="#F0F0F0" offset="100%"/></linearGradient><linearGradient x1="50%" y1="0%" x2="50%" y2="100%" id="p"><stop stop-color="#DB1E36" offset="0%"/><stop stop-color="#D51931" offset="100%"/></linearGradient></defs><g fill="none" fill-rule="evenodd"><mask id="c" fill="#fff"><use xlink:href="#a"/></mask><use fill="url(#b)" xlink:href="#a"/><g mask="url(#c)"><path d="M5 4.23L.648.5H2.66L6.16 3h.697L11.5.098V1.25c0 .303-.167.627-.418.806L8 4.257v.513l3.137 2.69c.462.395.204 1.04-.387 1.04-.245 0-.545-.096-.75-.242L6.84 6h-.697L1.5 8.902v-1.66l3.5-2.5V4.23z" fill="url(#o)" transform="translate(-2 -1)"/><path d="M5.5 4L2 1h.5L6 3.5h1L11 1v.25a.537.537 0 0 1-.208.399L7.5 4v1l3.312 2.839c.104.089.072.161-.062.161a.898.898 0 0 1-.458-.149L7 5.5H6L2 8v-.5L5.5 5V4z" fill="url(#p)" transform="translate(-2 -1)"/><path d="M2 3.5v2h3.5v2.505c0 .273.214.495.505.495h.99a.496.496 0 0 0 .505-.495V5.5h3.51a.49.49 0 0 0 .49-.505v-.99a.495.495 0 0 0-.49-.505H7.5V1h-2v2.5H2z" fill="url(#o)" transform="translate(-2 -1)"/><path fill="url(#p)" d="M2 4h4V1h1v3h4v1H7v3H6V5H2z" transform="translate(-2 -1)"/></g></g><path fill="#2fadf5" d="M12.6,10.3c0,0.2,0,0.7,0,1C12.5,12.2,12,13,11,13.4c-1.1-0.4-1.5-1.3-1.6-2.1c0-0.2,0-0.5,0-0.7l0-1.2h3.2 L12.6,10.3z"/><path fill="#FFFFFF" d="M12.6,11.3c0,0,0,0.1,0,0.1c-0.1,0.8-0.6,1.6-1.5,2c-1.1-0.4-1.5-1.2-1.6-2c0,0,0-0.1,0-0.1"/><polygon fill="#2fadf5" points="11,12.4 10.5,11.3 11.6,11.3"/><polygon fill="#FFFFFF" points="11,10.2 10.5,11.3 11.6,11.3"/><ellipse fill="#dc9f47" cx="13.2" cy="12" rx="0.4" ry="1.1"/><ellipse fill="#dc9f47" cx="8.8" cy="12" rx="0.4" ry="1.1"/><polygon fill="#FFFFFF" points="11,6.9 10.2,8 11.9,8"/><path fill="#FFFFFF" d="M9.3,13.1c0,0,0.8,0.7,1.7,0.7s1.7-0.7,1.7-0.7l0.2,0.4c0,0-0.5,0.8-1.9,0.8s-1.9-0.8-1.9-0.8L9.3,13.1z"/><ellipse fill="#A5A5A5" cx="11" cy="8.7" rx="0.9" ry="0.6"/></svg>