<svg width="15" height="15" xmlns="http://www.w3.org/2000/svg" xmlns:xlink="http://www.w3.org/1999/xlink"><defs><linearGradient x1="50%" y1="0%" x2="50%" y2="100%" id="b"><stop stop-color="#07319C" offset="0%"/><stop stop-color="#00247E" offset="100%"/></linearGradient><path id="a" d="M0 0h15v15H0z"/><linearGradient x1="50%" y1="0%" x2="50%" y2="100%" id="d"><stop stop-color="#FFF" offset="0%"/><stop stop-color="#F0F0F0" offset="100%"/></linearGradient><linearGradient x1="50%" y1="0%" x2="50%" y2="100%" id="e"><stop stop-color="#FFD033" offset="0%"/><stop stop-color="#FEC403" offset="100%"/></linearGradient><linearGradient x1="50%" y1="0%" x2="50%" y2="100%" id="f"><stop stop-color="#DB1E36" offset="0%"/><stop stop-color="#D51931" offset="100%"/></linearGradient></defs><g fill="none" fill-rule="evenodd"><mask id="c" fill="#fff"><use xlink:href="#a"/></mask><use fill="url(#b)" xlink:href="#a"/><g mask="url(#c)"><g transform="translate(9 9)"><path d="M0 2.5V.714C0 .32.355 0 .8 0h2.4c.442 0 .8.315.8.714V2.5C4 4.286 2 5 2 5s-2-.714-2-2.5z" fill="url(#d)"/><path d="M2.115 4.55c.21-.107.422-.239.618-.396.546-.44.867-.983.867-1.654V.714c0-.2-.177-.357-.4-.357H.8C.577.357.4.516.4.714V2.5c0 .67.32 1.215.867 1.654.222.178.468.33.733.452l.115-.056z" fill="url(#e)"/><ellipse fill="#BA5B1F" cx="2.8" cy="1.429" rx="1" ry="1"/><ellipse fill="#FF9F3E" transform="rotate(-20 1.05 1.45)" cx="1.05" cy="1.45" rx="1" ry="1"/><ellipse fill="#FF937F" transform="rotate(25 1.369 1.462)" cx="1.369" cy="1.462" rx="1" ry="1"/><path fill="#01A827" d="M1.6 2.857l.4-.714.4.714v.714h-.8z"/></g></g><g mask="url(#c)"><path d="M5 4.23L.648.5H2.66L6.16 3h.697L11.5.098V1.25c0 .303-.167.627-.418.806L8 4.257v.513l3.137 2.69c.462.395.204 1.04-.387 1.04-.245 0-.545-.096-.75-.242L6.84 6h-.697L1.5 8.902v-1.66l3.5-2.5V4.23z" fill="url(#d)" transform="translate(-2 -1)"/><path d="M5.5 4L2 1h.5L6 3.5h1L11 1v.25a.537.537 0 0 1-.208.399L7.5 4v1l3.312 2.839c.104.089.072.161-.062.161a.898.898 0 0 1-.458-.149L7 5.5H6L2 8v-.5L5.5 5V4z" fill="url(#f)" transform="translate(-2 -1)"/><path d="M2 3.5v2h3.5v2.505c0 .273.214.495.505.495h.99a.496.496 0 0 0 .505-.495V5.5h3.51a.49.49 0 0 0 .49-.505v-.99a.495.495 0 0 0-.49-.505H7.5V1h-2v2.5H2z" fill="url(#d)" transform="translate(-2 -1)"/><path fill="url(#f)" d="M2 4h4V1h1v3h4v1H7v3H6V5H2z" transform="translate(-2 -1)"/></g></g></svg>