<svg width="15" height="15" xmlns="http://www.w3.org/2000/svg" xmlns:xlink="http://www.w3.org/1999/xlink"><defs><linearGradient x1="50%" y1="0%" x2="50%" y2="100%" id="a"><stop stop-color="#30C375" offset="0%"/><stop stop-color="#28AE67" offset="100%"/></linearGradient><linearGradient x1="50%" y1="0%" x2="50%" y2="100%" id="b"><stop stop-color="#DE414F" offset="0%"/><stop stop-color="#CA3745" offset="100%"/></linearGradient><ellipse id="c" cx="1.5" cy="1" rx="1.5" ry="1"/><ellipse id="e" cx="1.5" cy="1" rx="1.5" ry="1"/><ellipse id="g" cx="1.5" cy="1" rx="1.5" ry="1"/><ellipse id="i" cx="1.5" cy="1" rx="1.5" ry="1"/><ellipse id="k" cx="1.5" cy="1" rx="1.5" ry="1"/><ellipse id="m" cx="1.5" cy="1" rx="1.5" ry="1"/><ellipse id="o" cx="1.5" cy="1" rx="1.5" ry="1"/><linearGradient x1="50%" y1="0%" x2="50%" y2="100%" id="q"><stop stop-color="#FFF" offset="0%"/><stop stop-color="#F0F0F0" offset="100%"/></linearGradient></defs><g fill="none" fill-rule="evenodd"><path fill="url(#a)" d="M0 0h15v15H0z"/><path fill="url(#b)" d="M3 0h3v15H3z"/><ellipse cx="1.5" cy="1" rx="1.5" ry="1" fill="#FFF" transform="translate(3 1)"/><g transform="translate(3 1)"><mask id="d" fill="#fff"><use xlink:href="#c"/></mask><circle fill="#DD404F" mask="url(#d)" cx="1.5" cy="1" r="1"/></g><g transform="translate(3 1)"><mask id="f" fill="#fff"><use xlink:href="#e"/></mask><path d="M0 0h1.5v1H0V0zm1.5 1H3v1H1.5V1z" fill="#FBAF29" fill-rule="nonzero" mask="url(#f)"/></g><ellipse cx="1.5" cy="1" rx="1.5" ry="1" fill="#FFF" transform="translate(3 12)"/><g transform="translate(3 12)"><mask id="h" fill="#fff"><use xlink:href="#g"/></mask><circle fill="#DD404F" mask="url(#h)" cx="1.5" cy="1" r="1"/></g><g transform="translate(3 12)"><mask id="j" fill="#fff"><use xlink:href="#i"/></mask><path d="M0 0h1.5v1H0V0zm1.5 1H3v1H1.5V1z" fill="#FBAF29" fill-rule="nonzero" mask="url(#j)"/></g><g transform="translate(3 7)"><ellipse cx="1.5" cy="1" rx="1.5" ry="1" fill="#28AE67"/><mask id="l" fill="#fff"><use xlink:href="#k"/></mask><circle fill="#DD404F" mask="url(#l)" cx="1.5" cy="1" r="1"/></g><ellipse cx="1.5" cy="1.5" rx="1.5" ry="1" transform="translate(3 9)" fill="#28AE67"/><g transform="translate(3 4)"><ellipse cx="1.5" cy="1" rx="1.5" ry="1" fill="#FBAF29"/><mask id="n" fill="#fff"><use xlink:href="#m"/></mask><circle fill="#DD404F" mask="url(#n)" cx="1.5" cy="1" r="1"/><mask id="p" fill="#fff"><use xlink:href="#o"/></mask><path d="M0 0h1v2H0V0zm2 0h1v2H2V0z" fill="#28AE67" fill-rule="nonzero" mask="url(#p)"/></g><g transform="translate(8 2)" fill="url(#q)"><path d="M2.94 1.556a.357.357 0 1 0 .533.477.357.357 0 0 0-.532-.477zm-.925 1.385a.357.357 0 1 0-.477.532.357.357 0 0 0 .477-.532zm-.714-.715a.357.357 0 1 0-.477.532.357.357 0 0 0 .477-.532zM2.729.798a.357.357 0 1 0-.476.532.357.357 0 0 0 .476-.532zm-.357 1.071a.357.357 0 1 0-.476.532.357.357 0 0 0 .476-.532z" fill-rule="nonzero"/><path d="M4.362 4.349a2.179 2.179 0 0 1-3.304-.262A2.179 2.179 0 0 0 4.1 1.044a2.179 2.179 0 0 1 .261 3.305z"/></g></g></svg>