<svg width="15" height="15" xmlns="http://www.w3.org/2000/svg" xmlns:xlink="http://www.w3.org/1999/xlink"><defs><linearGradient x1="50%" y1="0%" x2="50%" y2="100%" id="b"><stop stop-color="#FFF" offset="0%"/><stop stop-color="#F0F0F0" offset="100%"/></linearGradient><path id="a" d="M0 0h15v15H0z"/><linearGradient x1="50%" y1="0%" x2="50%" y2="100%" id="c"><stop stop-color="#04AAC8" offset="0%"/><stop stop-color="#009AB6" offset="100%"/></linearGradient><linearGradient x1="50%" y1="0%" x2="50%" y2="100%" id="e"><stop stop-color="#23C840" offset="0%"/><stop stop-color="#1EB639" offset="100%"/></linearGradient></defs><g fill="none" fill-rule="evenodd"><mask id="d" fill="#fff"><use xlink:href="#a"/></mask><use fill="url(#b)" xlink:href="#a"/><path fill="url(#c)" mask="url(#d)" d="M0 0h21v5H0z"/><path fill="url(#e)" mask="url(#d)" d="M0 10h21v5H0z"/><path d="M0 5h21v5H0V5zm4.334-3.747a1.5 1.5 0 1 0 0 2.495 1.25 1.25 0 1 1 0-2.495zM5.5 4a.5.5 0 1 1 0-1 .5.5 0 0 1 0 1zm2-2a.5.5 0 1 1 0-1 .5.5 0 0 1 0 1zm2 0a.5.5 0 1 1 0-1 .5.5 0 0 1 0 1zm0 2a.5.5 0 1 1 0-1 .5.5 0 0 1 0 1zm-2 0a.5.5 0 1 1 0-1 .5.5 0 0 1 0 1z" fill="url(#b)" fill-rule="nonzero" mask="url(#d)"/></g></svg>