<svg width="15" height="15" xmlns="http://www.w3.org/2000/svg" xmlns:xlink="http://www.w3.org/1999/xlink"><defs><linearGradient x1="50%" y1="0%" x2="50%" y2="100%" id="a"><stop stop-color="#FFF" offset="0%"/><stop stop-color="#F0F0F0" offset="100%"/></linearGradient><path d="M0 .368A.37.37 0 0 1 .107.106.355.355 0 0 1 .365 0h2.936c.2 0 .362.164.366.368v3.764a.397.397 0 0 1-.367.391s-1.1-.023-1.467.682C1.467 4.5.367 4.522.367 4.522A.401.401 0 0 1 0 4.131V.368z" id="b"/><linearGradient x1="50%" y1="0%" x2="50%" y2="100%" id="d"><stop stop-color="#1B2CA9" offset="0%"/><stop stop-color="#132294" offset="100%"/></linearGradient><path d="M0 .368A.37.37 0 0 1 .107.106.355.355 0 0 1 .365 0h2.936c.2 0 .362.164.366.368v3.764a.397.397 0 0 1-.367.391s-1.1-.023-1.467.682C1.467 4.5.367 4.522.367 4.522A.401.401 0 0 1 0 4.131V.368z" id="e"/><linearGradient x1="50%" y1="0%" x2="50%" y2="100%" id="g"><stop stop-color="#E6402C" offset="0%"/><stop stop-color="#D1321F" offset="100%"/></linearGradient><linearGradient x1="50%" y1="0%" x2="50%" y2="100%" id="h"><stop stop-color="#D0D0D0" offset="0%"/><stop stop-color="#C4C4C4" offset="100%"/></linearGradient><linearGradient x1="50%" y1="0%" x2="50%" y2="100%" id="i"><stop stop-color="#262626" offset="0%"/><stop stop-color="#0D0D0D" offset="100%"/></linearGradient><linearGradient x1="50%" y1="0%" x2="50%" y2="100%" id="j"><stop stop-color="#F7E04B" offset="0%"/><stop stop-color="#EAD135" offset="100%"/></linearGradient></defs><g fill="none" fill-rule="evenodd"><path fill="url(#a)" d="M0 0h15v15H0z"/><path d="M5.667 6.118a.37.37 0 0 1 .107-.262.355.355 0 0 1 .258-.106h2.936c.2 0 .362.164.365.368v3.764a.397.397 0 0 1-.366.391s-1.1-.023-1.467.682c-.367-.705-1.467-.682-1.467-.682a.401.401 0 0 1-.366-.392V6.118z" fill="#D8D8D8"/><path d="M6.033 6.125v3.757s.015.016-.007.016h.007c.251-.003.582.036.917.16.209.077.395.18.55.314a1.77 1.77 0 0 1 .55-.314c.326-.12.647-.16.895-.16.014-.003.022-.012.022-.016V6.125s0 0 0 0H6.033z" stroke="#979797" stroke-width=".7"/><g transform="translate(5.667 5.75)"><mask id="c" fill="#fff"><use xlink:href="#b"/></mask><g mask="url(#c)"><path d="M0 0h3.667v2.25H0z" fill="#000"/><path d="M0 0h3.667v2.25H0z" fill="url(#d)"/></g></g><g transform="translate(5.667 5.75)"><mask id="f" fill="#fff"><use xlink:href="#e"/></mask><g mask="url(#f)"><path fill="#000" d="M0 2.25h3.667v3H0z"/><path fill="url(#g)" d="M0 0h3.667v3H0z" transform="translate(0 2.25)"/></g></g><g transform="translate(10.067 5)"><path d="M.762 1.294V.947L1.1.75S.766.333.931.333C1.133.333 1.98.608 2.2.75c.22.142.332.313.364.637.03.324-.232.736-.232.736l-.132.314.578-.134s.094.62-.332 1.072c-.425.452-1.023.368-1.023.368l-.12-.368s-.389.155-.618.506c-.23.35-.294.957.077 1.332.371.375.983.342 1.276-.184 0 0 .117-.465-.154-.684-.27-.218-.452.233-.46.208-.053-.157-.12-.427.313-.427.434 0 .657.478.594.844-.061.367-.187.715-1.028.813-.84.097-1.057-.994-1.057-.994s-.214-1.016 0-1.75c.215-.736.532-.754 1.177-1.157.646-.403-.389-.137-.389-.137s-.491.378-.645.24c-.154-.137.373-.69.373-.69z" fill="url(#h)"/><ellipse fill-opacity=".3" fill="url(#i)" cx="1.283" cy="1.313" rx="1" ry="1"/></g><g transform="matrix(-1 0 0 1 4.933 5)"><path d="M.762 1.294V.947L1.1.75S.766.333.931.333C1.133.333 1.98.608 2.2.75c.22.142.332.313.364.637.03.324-.232.736-.232.736l-.132.314.578-.134s.094.62-.332 1.072c-.425.452-1.023.368-1.023.368l-.12-.368s-.389.155-.618.506c-.23.35-.294.957.077 1.332.371.375.983.342 1.276-.184 0 0 .117-.465-.154-.684-.27-.218-.452.233-.46.208-.053-.157-.12-.427.313-.427.434 0 .657.478.594.844-.061.367-.187.715-1.028.813-.84.097-1.057-.994-1.057-.994s-.214-1.016 0-1.75c.215-.736.532-.754 1.177-1.157.646-.403-.389-.137-.389-.137s-.491.378-.645.24c-.154-.137.373-.69.373-.69z" fill="url(#h)"/><ellipse fill-opacity=".3" fill="url(#i)" cx="1.283" cy="1.313" rx="1" ry="1"/></g><path d="M4.865 1.5a.762.762 0 0 0 .164.95.72.72 0 0 0 .942 0 .762.762 0 0 0 .164-.95.73.73 0 0 1-.635.375.73.73 0 0 1-.635-.375z" fill="url(#a)" transform="translate(2 5)"/><path d="M4.767 4.821c-.203 0-.367-.24-.367-.535 0-.296.164-.536.367-.536.202 0 .366.24.366.536 0 .296-.164.535-.366.535zm1.466 0c-.202 0-.366-.24-.366-.535 0-.296.164-.536.366-.536.203 0 .367.24.367.536 0 .296-.164.535-.367.535z" fill="url(#j)" fill-rule="nonzero" transform="translate(2 5)"/></g></svg>